%TF.GenerationSoftware,KiCad,Pcbnew,7.0.10*%
%TF.CreationDate,2024-01-05T15:39:21+01:00*%
%TF.ProjectId,GateControl,47617465-436f-46e7-9472-6f6c2e6b6963,rev?*%
%TF.SameCoordinates,Original*%
%TF.FileFunction,Copper,L1,Top*%
%TF.FilePolarity,Positive*%
%FSLAX46Y46*%
G04 Gerber Fmt 4.6, Leading zero omitted, Abs format (unit mm)*
G04 Created by KiCad (PCBNEW 7.0.10) date 2024-01-05 15:39:21*
%MOMM*%
%LPD*%
G01*
G04 APERTURE LIST*
G04 Aperture macros list*
%AMRoundRect*
0 Rectangle with rounded corners*
0 $1 Rounding radius*
0 $2 $3 $4 $5 $6 $7 $8 $9 X,Y pos of 4 corners*
0 Add a 4 corners polygon primitive as box body*
4,1,4,$2,$3,$4,$5,$6,$7,$8,$9,$2,$3,0*
0 Add four circle primitives for the rounded corners*
1,1,$1+$1,$2,$3*
1,1,$1+$1,$4,$5*
1,1,$1+$1,$6,$7*
1,1,$1+$1,$8,$9*
0 Add four rect primitives between the rounded corners*
20,1,$1+$1,$2,$3,$4,$5,0*
20,1,$1+$1,$4,$5,$6,$7,0*
20,1,$1+$1,$6,$7,$8,$9,0*
20,1,$1+$1,$8,$9,$2,$3,0*%
%AMFreePoly0*
4,1,19,0.500000,-0.750000,0.000000,-0.750000,0.000000,-0.744911,-0.071157,-0.744911,-0.207708,-0.704816,-0.327430,-0.627875,-0.420627,-0.520320,-0.479746,-0.390866,-0.500000,-0.250000,-0.500000,0.250000,-0.479746,0.390866,-0.420627,0.520320,-0.327430,0.627875,-0.207708,0.704816,-0.071157,0.744911,0.000000,0.744911,0.000000,0.750000,0.500000,0.750000,0.500000,-0.750000,0.500000,-0.750000,
$1*%
%AMFreePoly1*
4,1,19,0.000000,0.744911,0.071157,0.744911,0.207708,0.704816,0.327430,0.627875,0.420627,0.520320,0.479746,0.390866,0.500000,0.250000,0.500000,-0.250000,0.479746,-0.390866,0.420627,-0.520320,0.327430,-0.627875,0.207708,-0.704816,0.071157,-0.744911,0.000000,-0.744911,0.000000,-0.750000,-0.500000,-0.750000,-0.500000,0.750000,0.000000,0.750000,0.000000,0.744911,0.000000,0.744911,
$1*%
G04 Aperture macros list end*
%TA.AperFunction,ComponentPad*%
%ADD10O,1.700000X1.700000*%
%TD*%
%TA.AperFunction,SMDPad,CuDef*%
%ADD11R,3.500000X1.700000*%
%TD*%
%TA.AperFunction,ComponentPad*%
%ADD12R,1.700000X1.700000*%
%TD*%
%TA.AperFunction,SMDPad,CuDef*%
%ADD13R,1.700000X3.500000*%
%TD*%
%TA.AperFunction,SMDPad,CuDef*%
%ADD14RoundRect,0.237500X-0.287500X-0.237500X0.287500X-0.237500X0.287500X0.237500X-0.287500X0.237500X0*%
%TD*%
%TA.AperFunction,ComponentPad*%
%ADD15R,1.000000X1.000000*%
%TD*%
%TA.AperFunction,ComponentPad*%
%ADD16RoundRect,0.250000X-0.725000X0.600000X-0.725000X-0.600000X0.725000X-0.600000X0.725000X0.600000X0*%
%TD*%
%TA.AperFunction,ComponentPad*%
%ADD17O,1.950000X1.700000*%
%TD*%
%TA.AperFunction,ComponentPad*%
%ADD18C,1.600000*%
%TD*%
%TA.AperFunction,ComponentPad*%
%ADD19RoundRect,0.250000X-0.750000X0.600000X-0.750000X-0.600000X0.750000X-0.600000X0.750000X0.600000X0*%
%TD*%
%TA.AperFunction,ComponentPad*%
%ADD20O,2.000000X1.700000*%
%TD*%
%TA.AperFunction,SMDPad,CuDef*%
%ADD21RoundRect,0.250000X0.159099X-0.724784X0.724784X-0.159099X-0.159099X0.724784X-0.724784X0.159099X0*%
%TD*%
%TA.AperFunction,SMDPad,CuDef*%
%ADD22RoundRect,0.250000X-0.350000X-0.450000X0.350000X-0.450000X0.350000X0.450000X-0.350000X0.450000X0*%
%TD*%
%TA.AperFunction,ComponentPad*%
%ADD23O,1.600000X1.600000*%
%TD*%
%TA.AperFunction,ComponentPad*%
%ADD24R,2.200000X2.200000*%
%TD*%
%TA.AperFunction,ComponentPad*%
%ADD25O,2.200000X2.200000*%
%TD*%
%TA.AperFunction,ComponentPad*%
%ADD26RoundRect,0.250000X0.600000X0.750000X-0.600000X0.750000X-0.600000X-0.750000X0.600000X-0.750000X0*%
%TD*%
%TA.AperFunction,ComponentPad*%
%ADD27O,1.700000X2.000000*%
%TD*%
%TA.AperFunction,ComponentPad*%
%ADD28RoundRect,0.250000X-0.600000X-0.750000X0.600000X-0.750000X0.600000X0.750000X-0.600000X0.750000X0*%
%TD*%
%TA.AperFunction,SMDPad,CuDef*%
%ADD29R,0.650000X1.525000*%
%TD*%
%TA.AperFunction,SMDPad,CuDef*%
%ADD30R,3.300000X2.410000*%
%TD*%
%TA.AperFunction,ComponentPad*%
%ADD31R,4.500000X2.000000*%
%TD*%
%TA.AperFunction,ComponentPad*%
%ADD32O,4.000000X2.000000*%
%TD*%
%TA.AperFunction,ComponentPad*%
%ADD33O,2.000000X4.000000*%
%TD*%
%TA.AperFunction,SMDPad,CuDef*%
%ADD34RoundRect,0.237500X0.287500X0.237500X-0.287500X0.237500X-0.287500X-0.237500X0.287500X-0.237500X0*%
%TD*%
%TA.AperFunction,ComponentPad*%
%ADD35R,2.400000X2.400000*%
%TD*%
%TA.AperFunction,ComponentPad*%
%ADD36O,2.400000X2.400000*%
%TD*%
%TA.AperFunction,SMDPad,CuDef*%
%ADD37RoundRect,0.250000X0.625000X-0.400000X0.625000X0.400000X-0.625000X0.400000X-0.625000X-0.400000X0*%
%TD*%
%TA.AperFunction,ComponentPad*%
%ADD38R,1.600000X1.600000*%
%TD*%
%TA.AperFunction,SMDPad,CuDef*%
%ADD39R,2.000000X1.500000*%
%TD*%
%TA.AperFunction,SMDPad,CuDef*%
%ADD40R,2.000000X3.800000*%
%TD*%
%TA.AperFunction,SMDPad,CuDef*%
%ADD41R,1.350000X1.100000*%
%TD*%
%TA.AperFunction,SMDPad,CuDef*%
%ADD42RoundRect,0.250000X-0.450000X0.350000X-0.450000X-0.350000X0.450000X-0.350000X0.450000X0.350000X0*%
%TD*%
%TA.AperFunction,SMDPad,CuDef*%
%ADD43FreePoly0,180.000000*%
%TD*%
%TA.AperFunction,SMDPad,CuDef*%
%ADD44FreePoly1,180.000000*%
%TD*%
%TA.AperFunction,SMDPad,CuDef*%
%ADD45R,0.800000X0.300000*%
%TD*%
%TA.AperFunction,SMDPad,CuDef*%
%ADD46R,0.750000X1.550000*%
%TD*%
%TA.AperFunction,SMDPad,CuDef*%
%ADD47RoundRect,0.150000X0.825000X0.150000X-0.825000X0.150000X-0.825000X-0.150000X0.825000X-0.150000X0*%
%TD*%
%TA.AperFunction,ViaPad*%
%ADD48C,0.800000*%
%TD*%
%TA.AperFunction,Conductor*%
%ADD49C,1.000000*%
%TD*%
%TA.AperFunction,Conductor*%
%ADD50C,0.300000*%
%TD*%
%TA.AperFunction,Conductor*%
%ADD51C,0.250000*%
%TD*%
%TA.AperFunction,Conductor*%
%ADD52C,1.100000*%
%TD*%
G04 APERTURE END LIST*
D10*
%TO.P,U1,1,GPIO0*%
%TO.N,/I2C0 SDA*%
X202140000Y-126130000D03*
D11*
X203040000Y-126130000D03*
D10*
%TO.P,U1,2,GPIO1*%
%TO.N,/I2C0 SCL*%
X202140000Y-123590000D03*
D11*
X203040000Y-123590000D03*
D12*
%TO.P,U1,3,GND*%
%TO.N,GND*%
X202140000Y-121050000D03*
D11*
X203040000Y-121050000D03*
D10*
%TO.P,U1,4,GPIO2*%
%TO.N,/SPI0 SCK*%
X202140000Y-118510000D03*
D11*
X203040000Y-118510000D03*
D10*
%TO.P,U1,5,GPIO3*%
%TO.N,/SPI0 MOSI*%
X202140000Y-115970000D03*
D11*
X203040000Y-115970000D03*
D10*
%TO.P,U1,6,GPIO4*%
%TO.N,/SPI0 MISO*%
X202140000Y-113430000D03*
D11*
X203040000Y-113430000D03*
D10*
%TO.P,U1,7,GPIO5*%
%TO.N,/SPI0 SS*%
X202140000Y-110890000D03*
D11*
X203040000Y-110890000D03*
D12*
%TO.P,U1,8,GND*%
%TO.N,GND*%
X202140000Y-108350000D03*
D11*
X203040000Y-108350000D03*
D10*
%TO.P,U1,9,GPIO6*%
%TO.N,/IO1*%
X202140000Y-105810000D03*
D11*
X203040000Y-105810000D03*
D10*
%TO.P,U1,10,GPIO7*%
%TO.N,/IO2*%
X202140000Y-103270000D03*
D11*
X203040000Y-103270000D03*
D10*
%TO.P,U1,11,GPIO8*%
%TO.N,/IO3*%
X202140000Y-100730000D03*
D11*
X203040000Y-100730000D03*
D10*
%TO.P,U1,12,GPIO9*%
%TO.N,/LED1*%
X202140000Y-98190000D03*
D11*
X203040000Y-98190000D03*
D12*
%TO.P,U1,13,GND*%
%TO.N,GND*%
X202140000Y-95650000D03*
D11*
X203040000Y-95650000D03*
D10*
%TO.P,U1,14,GPIO10*%
%TO.N,unconnected-(U1-GPIO10-Pad14)*%
X202140000Y-93110000D03*
D11*
X203040000Y-93110000D03*
D10*
%TO.P,U1,15,GPIO11*%
%TO.N,unconnected-(U1-GPIO11-Pad15)*%
X202140000Y-90570000D03*
D11*
X203040000Y-90570000D03*
D10*
%TO.P,U1,16,GPIO12*%
%TO.N,unconnected-(U1-GPIO12-Pad16)*%
X202140000Y-88030000D03*
D11*
X203040000Y-88030000D03*
D10*
%TO.P,U1,17,GPIO13*%
%TO.N,unconnected-(U1-GPIO13-Pad17)*%
X202140000Y-85490000D03*
D11*
X203040000Y-85490000D03*
D12*
%TO.P,U1,18,GND*%
%TO.N,GND*%
X202140000Y-82950000D03*
D11*
X203040000Y-82950000D03*
D10*
%TO.P,U1,19,GPIO14*%
%TO.N,/LEDOnBoard*%
X202140000Y-80410000D03*
D11*
X203040000Y-80410000D03*
D10*
%TO.P,U1,20,GPIO15*%
%TO.N,/ButtonOnBoard*%
X202140000Y-77870000D03*
D11*
X203040000Y-77870000D03*
D10*
%TO.P,U1,21,GPIO16*%
%TO.N,/PWM1*%
X184360000Y-77870000D03*
D11*
X183460000Y-77870000D03*
D10*
%TO.P,U1,22,GPIO17*%
%TO.N,/PWM2*%
X184360000Y-80410000D03*
D11*
X183460000Y-80410000D03*
D12*
%TO.P,U1,23,GND*%
%TO.N,GND*%
X184360000Y-82950000D03*
D11*
X183460000Y-82950000D03*
D10*
%TO.P,U1,24,GPIO18*%
%TO.N,/I2C1 SDA*%
X184360000Y-85490000D03*
D11*
X183460000Y-85490000D03*
D10*
%TO.P,U1,25,GPIO19*%
%TO.N,/I2C1 SCL*%
X184360000Y-88030000D03*
D11*
X183460000Y-88030000D03*
D10*
%TO.P,U1,26,GPIO20*%
%TO.N,Net-(S1-COM_1)*%
X184360000Y-90570000D03*
D11*
X183460000Y-90570000D03*
D10*
%TO.P,U1,27,GPIO21*%
%TO.N,Net-(U1-GPIO21)*%
X184360000Y-93110000D03*
D11*
X183460000Y-93110000D03*
D12*
%TO.P,U1,28,GND*%
%TO.N,GND*%
X184360000Y-95650000D03*
D11*
X183460000Y-95650000D03*
D10*
%TO.P,U1,29,GPIO22*%
%TO.N,unconnected-(U1-GPIO22-Pad29)*%
X184360000Y-98190000D03*
D11*
X183460000Y-98190000D03*
D10*
%TO.P,U1,30,RUN*%
%TO.N,unconnected-(U1-RUN-Pad30)*%
X184360000Y-100730000D03*
D11*
X183460000Y-100730000D03*
D10*
%TO.P,U1,31,GPIO26_ADC0*%
%TO.N,unconnected-(U1-GPIO26_ADC0-Pad31)*%
X184360000Y-103270000D03*
D11*
X183460000Y-103270000D03*
D10*
%TO.P,U1,32,GPIO27_ADC1*%
%TO.N,unconnected-(U1-GPIO27_ADC1-Pad32)*%
X184360000Y-105810000D03*
D11*
X183460000Y-105810000D03*
D12*
%TO.P,U1,33,AGND*%
%TO.N,GND*%
X184360000Y-108350000D03*
D11*
X183460000Y-108350000D03*
D10*
%TO.P,U1,34,GPIO28_ADC2*%
%TO.N,unconnected-(U1-GPIO28_ADC2-Pad34)*%
X184360000Y-110890000D03*
D11*
X183460000Y-110890000D03*
D10*
%TO.P,U1,35,ADC_VREF*%
%TO.N,unconnected-(U1-ADC_VREF-Pad35)*%
X184360000Y-113430000D03*
D11*
X183460000Y-113430000D03*
D10*
%TO.P,U1,36,3V3*%
%TO.N,+3.3V*%
X184360000Y-115970000D03*
D11*
X183460000Y-115970000D03*
D10*
%TO.P,U1,37,3V3_EN*%
%TO.N,unconnected-(U1-3V3_EN-Pad37)*%
X184360000Y-118510000D03*
D11*
X183460000Y-118510000D03*
D12*
%TO.P,U1,38,GND*%
%TO.N,GND*%
X184360000Y-121050000D03*
D11*
X183460000Y-121050000D03*
D10*
%TO.P,U1,39,VSYS*%
%TO.N,+5V*%
X184360000Y-123590000D03*
D11*
X183460000Y-123590000D03*
D10*
%TO.P,U1,40,VBUS*%
%TO.N,unconnected-(U1-VBUS-Pad40)*%
X184360000Y-126130000D03*
D11*
X183460000Y-126130000D03*
D10*
%TO.P,U1,41,SWCLK*%
%TO.N,Net-(J5-Pin_1)*%
X195790000Y-78100000D03*
D13*
X195790000Y-77200000D03*
D12*
%TO.P,U1,42,GND*%
%TO.N,GND*%
X193250000Y-78100000D03*
D13*
X193250000Y-77200000D03*
D10*
%TO.P,U1,43,SWDIO*%
%TO.N,Net-(J5-Pin_3)*%
X190710000Y-78100000D03*
D13*
X190710000Y-77200000D03*
%TD*%
D12*
%TO.P,J5,1,Pin_1*%
%TO.N,Net-(J5-Pin_1)*%
X195775000Y-72275000D03*
D10*
%TO.P,J5,2,Pin_2*%
%TO.N,GND*%
X193235000Y-72275000D03*
%TO.P,J5,3,Pin_3*%
%TO.N,Net-(J5-Pin_3)*%
X190695000Y-72275000D03*
%TD*%
D14*
%TO.P,D6,1,K*%
%TO.N,GND*%
X173875000Y-109000000D03*
%TO.P,D6,2,A*%
%TO.N,Net-(D6-A)*%
X175625000Y-109000000D03*
%TD*%
D15*
%TO.P,GND3,1,1*%
%TO.N,GND*%
X155000000Y-125000000D03*
%TD*%
%TO.P,Sense1,1,1*%
%TO.N,Net-(U4-LSS)*%
X162860000Y-75850000D03*
%TD*%
D16*
%TO.P,J_I2C1,1,Pin_1*%
%TO.N,GND*%
X223000000Y-117500000D03*
D17*
%TO.P,J_I2C1,2,Pin_2*%
%TO.N,+3.3V*%
X223000000Y-120000000D03*
%TO.P,J_I2C1,3,Pin_3*%
%TO.N,/I2C0 SDA*%
X223000000Y-122500000D03*
%TO.P,J_I2C1,4,Pin_4*%
%TO.N,/I2C0 SCL*%
X223000000Y-125000000D03*
%TD*%
D15*
%TO.P,VDC2,1,1*%
%TO.N,/Current Sense/DCMotor*%
X174000000Y-68250000D03*
%TD*%
%TO.P,GND2,1,1*%
%TO.N,GND*%
X166250000Y-75000000D03*
%TD*%
D18*
%TO.P,C_IC3,1*%
%TO.N,+3.3V*%
X171750000Y-79250000D03*
%TO.P,C_IC3,2*%
%TO.N,GND*%
X176750000Y-79250000D03*
%TD*%
D19*
%TO.P,J_BTN2,1,Pin_1*%
%TO.N,GND*%
X223025000Y-81750000D03*
D20*
%TO.P,J_BTN2,2,Pin_2*%
%TO.N,/IO2*%
X223025000Y-84250000D03*
%TD*%
D21*
%TO.P,R_SENSE1,1*%
%TO.N,Net-(U4-LSS)*%
X163153984Y-73346016D03*
%TO.P,R_SENSE1,2*%
%TO.N,GND*%
X165346016Y-71153984D03*
%TD*%
D22*
%TO.P,R10k_4,1*%
%TO.N,VDC*%
X168000000Y-91000000D03*
%TO.P,R10k_4,2*%
%TO.N,Net-(D7-A)*%
X170000000Y-91000000D03*
%TD*%
D18*
%TO.P,R2k_2,1*%
%TO.N,/LED1*%
X215750000Y-87560000D03*
D23*
%TO.P,R2k_2,2*%
%TO.N,Net-(J_LED1-Pin_2)*%
X215750000Y-79940000D03*
%TD*%
D16*
%TO.P,J_SPI1,1,Pin_1*%
%TO.N,GND*%
X223000000Y-98750000D03*
D17*
%TO.P,J_SPI1,2,Pin_2*%
%TO.N,+3.3V*%
X223000000Y-101250000D03*
%TO.P,J_SPI1,3,Pin_3*%
%TO.N,/SPI0 SS*%
X223000000Y-103750000D03*
%TO.P,J_SPI1,4,Pin_4*%
%TO.N,/SPI0 MOSI*%
X223000000Y-106250000D03*
%TO.P,J_SPI1,5,Pin_5*%
%TO.N,/SPI0 MISO*%
X223000000Y-108750000D03*
%TO.P,J_SPI1,6,Pin_6*%
%TO.N,/SPI0 SCK*%
X223000000Y-111250000D03*
%TD*%
D18*
%TO.P,C_IC5,1*%
%TO.N,+3.3V*%
X196000000Y-68750000D03*
%TO.P,C_IC5,2*%
%TO.N,GND*%
X201000000Y-68750000D03*
%TD*%
%TO.P,R1k_2,1*%
%TO.N,Net-(U5-ADJ)*%
X165440000Y-93750000D03*
D23*
%TO.P,R1k_2,2*%
%TO.N,+5V*%
X173060000Y-93750000D03*
%TD*%
D24*
%TO.P,D4,1,K*%
%TO.N,/MotorController/Out1*%
X169670000Y-74250000D03*
D25*
%TO.P,D4,2,A*%
%TO.N,GND*%
X179830000Y-74250000D03*
%TD*%
D18*
%TO.P,C_IC2,1*%
%TO.N,+5V*%
X174750000Y-113000000D03*
%TO.P,C_IC2,2*%
%TO.N,GND*%
X169750000Y-113000000D03*
%TD*%
D15*
%TO.P,VDC1,1,1*%
%TO.N,VDC*%
X155000000Y-122750000D03*
%TD*%
D14*
%TO.P,D1,1,K*%
%TO.N,GND*%
X203875000Y-68250000D03*
%TO.P,D1,2,A*%
%TO.N,Net-(D1-A)*%
X205625000Y-68250000D03*
%TD*%
D26*
%TO.P,J_IN2,1,Pin_1*%
%TO.N,GND*%
X173750000Y-125000000D03*
D27*
%TO.P,J_IN2,2,Pin_2*%
%TO.N,VDC*%
X171250000Y-125000000D03*
%TD*%
D28*
%TO.P,J_Motor1,1,Pin_1*%
%TO.N,/MotorController/Out2*%
X166250000Y-64750000D03*
D27*
%TO.P,J_Motor1,2,Pin_2*%
%TO.N,/MotorController/Out1*%
X168750000Y-64750000D03*
%TD*%
D18*
%TO.P,R10k_1,1*%
%TO.N,+3.3V*%
X215750000Y-90190000D03*
D23*
%TO.P,R10k_1,2*%
%TO.N,/IO1*%
X215750000Y-97810000D03*
%TD*%
D29*
%TO.P,U4,1,GND*%
%TO.N,GND*%
X161595000Y-87737000D03*
%TO.P,U4,2,IN2*%
%TO.N,/PWM2*%
X162865000Y-87737000D03*
%TO.P,U4,3,IN1*%
%TO.N,/PWM1*%
X164135000Y-87737000D03*
%TO.P,U4,4,VREF*%
%TO.N,+3.3V*%
X165405000Y-87737000D03*
%TO.P,U4,5,VBB*%
%TO.N,/Current Sense/DCMotor*%
X165405000Y-82313000D03*
%TO.P,U4,6,OUT1*%
%TO.N,/MotorController/Out1*%
X164135000Y-82313000D03*
%TO.P,U4,7,LSS*%
%TO.N,Net-(U4-LSS)*%
X162865000Y-82313000D03*
%TO.P,U4,8,OUT2*%
%TO.N,/MotorController/Out2*%
X161595000Y-82313000D03*
D30*
%TO.P,U4,9,PAD*%
%TO.N,GND*%
X163500000Y-85025000D03*
%TD*%
D18*
%TO.P,C_IC1,1*%
%TO.N,+12V*%
X157750000Y-103250000D03*
%TO.P,C_IC1,2*%
%TO.N,GND*%
X157750000Y-98250000D03*
%TD*%
D15*
%TO.P,GND1,1,1*%
%TO.N,GND*%
X178250000Y-113000000D03*
%TD*%
D18*
%TO.P,C_IC4,1*%
%TO.N,+3.3V*%
X156000000Y-89750000D03*
%TO.P,C_IC4,2*%
%TO.N,GND*%
X156000000Y-84750000D03*
%TD*%
D31*
%TO.P,J_IN1,1*%
%TO.N,VDC*%
X161150000Y-119300000D03*
D32*
%TO.P,J_IN1,2*%
%TO.N,GND*%
X161150000Y-125500000D03*
D33*
%TO.P,J_IN1,3*%
%TO.N,N/C*%
X165850000Y-122500000D03*
%TD*%
D34*
%TO.P,D7,1,K*%
%TO.N,GND*%
X173625000Y-90750000D03*
%TO.P,D7,2,A*%
%TO.N,Net-(D7-A)*%
X171875000Y-90750000D03*
%TD*%
D35*
%TO.P,D_TVS1,1,K*%
%TO.N,VDC*%
X161160000Y-114750000D03*
D36*
%TO.P,D_TVS1,2,A*%
%TO.N,GND*%
X166240000Y-114750000D03*
%TD*%
D37*
%TO.P,R_SHNT1,1*%
%TO.N,VDC*%
X167750000Y-87050000D03*
%TO.P,R_SHNT1,2*%
%TO.N,/Current Sense/DCMotor*%
X167750000Y-83950000D03*
%TD*%
D15*
%TO.P,Out1,1,1*%
%TO.N,/MotorController/Out1*%
X174500000Y-63250000D03*
%TD*%
D38*
%TO.P,C_47uF2,1*%
%TO.N,+5V*%
X173955112Y-117750000D03*
D18*
%TO.P,C_47uF2,2*%
%TO.N,GND*%
X171455112Y-117750000D03*
%TD*%
D19*
%TO.P,J_BTN3,1,Pin_1*%
%TO.N,GND*%
X223025000Y-73250000D03*
D20*
%TO.P,J_BTN3,2,Pin_2*%
%TO.N,/IO3*%
X223025000Y-75750000D03*
%TD*%
D39*
%TO.P,U5,1,ADJ*%
%TO.N,Net-(U5-ADJ)*%
X161350000Y-99700000D03*
%TO.P,U5,2,VO*%
%TO.N,+5V*%
X161350000Y-102000000D03*
D40*
X167650000Y-102000000D03*
D39*
%TO.P,U5,3,VI*%
%TO.N,+12V*%
X161350000Y-104300000D03*
%TD*%
D15*
%TO.P,5V1,1,1*%
%TO.N,+5V*%
X177500000Y-103250000D03*
%TD*%
%TO.P,In2,1,1*%
%TO.N,/PWM2*%
X179000000Y-79500000D03*
%TD*%
D41*
%TO.P,S1,1,COM_1*%
%TO.N,Net-(S1-COM_1)*%
X186075000Y-64500000D03*
%TO.P,S1,2,COM_2*%
%TO.N,unconnected-(S1-COM_2-Pad2)*%
X191925000Y-64500000D03*
%TO.P,S1,3,NO_1*%
%TO.N,GND*%
X186075000Y-67500000D03*
%TO.P,S1,4,NO_2*%
%TO.N,unconnected-(S1-NO_2-Pad4)*%
X191925000Y-67500000D03*
%TD*%
D18*
%TO.P,R10k_2,1*%
%TO.N,+3.3V*%
X211750000Y-90150000D03*
D23*
%TO.P,R10k_2,2*%
%TO.N,/IO2*%
X211750000Y-97770000D03*
%TD*%
D18*
%TO.P,R1k_1,1*%
%TO.N,+3.3V*%
X182750000Y-71560000D03*
D23*
%TO.P,R1k_1,2*%
%TO.N,Net-(S1-COM_1)*%
X182750000Y-63940000D03*
%TD*%
D22*
%TO.P,R2k_1,1*%
%TO.N,Net-(U1-GPIO21)*%
X203750000Y-71250000D03*
%TO.P,R2k_1,2*%
%TO.N,Net-(D1-A)*%
X205750000Y-71250000D03*
%TD*%
D18*
%TO.P,R10k_3,1*%
%TO.N,+3.3V*%
X211750000Y-87600000D03*
D23*
%TO.P,R10k_3,2*%
%TO.N,/IO3*%
X211750000Y-79980000D03*
%TD*%
D19*
%TO.P,J_BTN1,1,Pin_1*%
%TO.N,GND*%
X223025000Y-90250000D03*
D20*
%TO.P,J_BTN1,2,Pin_2*%
%TO.N,/IO1*%
X223025000Y-92750000D03*
%TD*%
D18*
%TO.P,R1k_3,1*%
%TO.N,Net-(U5-ADJ)*%
X165440000Y-96750000D03*
D23*
%TO.P,R1k_3,2*%
%TO.N,Net-(R1k_3-Pad2)*%
X173060000Y-96750000D03*
%TD*%
D24*
%TO.P,D3,1,K*%
%TO.N,/Current Sense/DCMotor*%
X159000000Y-80580000D03*
D25*
%TO.P,D3,2,A*%
%TO.N,/MotorController/Out2*%
X159000000Y-70420000D03*
%TD*%
D42*
%TO.P,R2k_4,1*%
%TO.N,+5V*%
X175500000Y-105250000D03*
%TO.P,R2k_4,2*%
%TO.N,Net-(D6-A)*%
X175500000Y-107250000D03*
%TD*%
D15*
%TO.P,12V1,1,1*%
%TO.N,+12V*%
X158000000Y-106500000D03*
%TD*%
D43*
%TO.P,JP12,1,A*%
%TO.N,+12V*%
X156900000Y-110500000D03*
D44*
%TO.P,JP12,2,B*%
%TO.N,VDC*%
X155600000Y-110500000D03*
%TD*%
D45*
%TO.P,U3,1,SCL*%
%TO.N,/I2C1 SCL*%
X197500000Y-65100000D03*
%TO.P,U3,2,INT*%
%TO.N,unconnected-(U3-INT-Pad2)*%
X197500000Y-65750000D03*
%TO.P,U3,3,VDD*%
%TO.N,+3.3V*%
X197500000Y-66400000D03*
%TO.P,U3,4,SAO*%
%TO.N,GND*%
X199500000Y-66400000D03*
%TO.P,U3,5,GND*%
X199500000Y-65750000D03*
%TO.P,U3,6,SDA*%
%TO.N,/I2C1 SDA*%
X199500000Y-65100000D03*
D46*
%TO.P,U3,7,EP*%
%TO.N,unconnected-(U3-EP-Pad7)*%
X198500000Y-65750000D03*
%TD*%
D38*
%TO.P,C_47uF3,1*%
%TO.N,/Current Sense/DCMotor*%
X166294888Y-78750000D03*
D18*
%TO.P,C_47uF3,2*%
%TO.N,GND*%
X168794888Y-78750000D03*
%TD*%
%TO.P,R2k_3,1*%
%TO.N,Net-(R1k_3-Pad2)*%
X173000000Y-99440000D03*
D23*
%TO.P,R2k_3,2*%
%TO.N,GND*%
X173000000Y-107060000D03*
%TD*%
D24*
%TO.P,D2,1,K*%
%TO.N,/Current Sense/DCMotor*%
X179660000Y-71000000D03*
D25*
%TO.P,D2,2,A*%
%TO.N,/MotorController/Out1*%
X169500000Y-71000000D03*
%TD*%
D43*
%TO.P,JP5,1,A*%
%TO.N,+5V*%
X156900000Y-114750000D03*
D44*
%TO.P,JP5,2,B*%
%TO.N,VDC*%
X155600000Y-114750000D03*
%TD*%
D47*
%TO.P,U2,1,A1*%
%TO.N,GND*%
X175225000Y-86155000D03*
%TO.P,U2,2,A0*%
X175225000Y-84885000D03*
%TO.P,U2,3,SDA*%
%TO.N,/I2C1 SDA*%
X175225000Y-83615000D03*
%TO.P,U2,4,SCL*%
%TO.N,/I2C1 SCL*%
X175225000Y-82345000D03*
%TO.P,U2,5,VS*%
%TO.N,+3.3V*%
X170275000Y-82345000D03*
%TO.P,U2,6,GND*%
%TO.N,GND*%
X170275000Y-83615000D03*
%TO.P,U2,7,IN-*%
%TO.N,/Current Sense/DCMotor*%
X170275000Y-84885000D03*
%TO.P,U2,8,IN+*%
%TO.N,VDC*%
X170275000Y-86155000D03*
%TD*%
D24*
%TO.P,D5,1,K*%
%TO.N,/MotorController/Out2*%
X155750000Y-70420000D03*
D25*
%TO.P,D5,2,A*%
%TO.N,GND*%
X155750000Y-80580000D03*
%TD*%
D15*
%TO.P,In1,1,1*%
%TO.N,/PWM1*%
X179000000Y-77250000D03*
%TD*%
D19*
%TO.P,J_LED1,1,Pin_1*%
%TO.N,GND*%
X223000000Y-64750000D03*
D20*
%TO.P,J_LED1,2,Pin_2*%
%TO.N,Net-(J_LED1-Pin_2)*%
X223000000Y-67250000D03*
%TD*%
D38*
%TO.P,C_47uF1,1*%
%TO.N,+12V*%
X160294887Y-95500000D03*
D18*
%TO.P,C_47uF1,2*%
%TO.N,GND*%
X162794887Y-95500000D03*
%TD*%
D15*
%TO.P,Out2,1,1*%
%TO.N,/MotorController/Out2*%
X161750000Y-63500000D03*
%TD*%
D48*
%TO.N,GND*%
X162325000Y-84275000D03*
X175000000Y-90750000D03*
X166000000Y-69000000D03*
X161250000Y-84000000D03*
X160075000Y-84275000D03*
X159000000Y-85250000D03*
X159000000Y-86250000D03*
X160075000Y-83275000D03*
X165750000Y-85000000D03*
X165750000Y-84000000D03*
X177250000Y-86250000D03*
X160075000Y-85275000D03*
X159000000Y-83250000D03*
X164575000Y-85775000D03*
X166000000Y-70000000D03*
X164575000Y-84275000D03*
X165250000Y-69500000D03*
X161250000Y-85000000D03*
X202500000Y-68250000D03*
X161075000Y-89250000D03*
X160075000Y-87275000D03*
X164500000Y-70000000D03*
X159000000Y-84250000D03*
X159000000Y-87250000D03*
X186000000Y-69000000D03*
X163500000Y-85025000D03*
X177250000Y-85000000D03*
X161250000Y-86000000D03*
X160075000Y-86275000D03*
X171750000Y-83500000D03*
X162325000Y-85775000D03*
X165750000Y-86000000D03*
%TO.N,+5V*%
X168500000Y-99500000D03*
X166000000Y-103750000D03*
X169250000Y-103750000D03*
X166000000Y-102750000D03*
X166000000Y-101250000D03*
X163250000Y-101500000D03*
X169250000Y-101250000D03*
X169250000Y-100250000D03*
X169250000Y-102750000D03*
X167000000Y-99500000D03*
X167000000Y-104500000D03*
X168500000Y-104500000D03*
X163250000Y-102500000D03*
X166000000Y-100250000D03*
%TO.N,+3.3V*%
X169250000Y-89250000D03*
X164797182Y-89222182D03*
%TO.N,/LED1*%
X209500000Y-89000000D03*
%TO.N,/IO3*%
X210250000Y-88250000D03*
%TO.N,/IO2*%
X218500000Y-89250000D03*
%TO.N,/SPI0 MISO*%
X211000000Y-113750000D03*
%TO.N,/I2C1 SCL*%
X188000000Y-87500000D03*
%TO.N,/I2C1 SDA*%
X179750000Y-84500000D03*
X188000000Y-85500000D03*
%TO.N,/PWM2*%
X162325000Y-89250000D03*
X173750000Y-81500000D03*
%TO.N,/PWM1*%
X163596447Y-89271447D03*
X174510601Y-80750000D03*
%TO.N,Net-(U1-GPIO21)*%
X199750000Y-73750000D03*
X202250000Y-71250000D03*
%TD*%
D49*
%TO.N,+5V*%
X184350000Y-123580000D02*
X184360000Y-123590000D01*
%TO.N,/Current Sense/DCMotor*%
X173580000Y-77250000D02*
X179830000Y-71000000D01*
X165405000Y-79639888D02*
X166294888Y-78750000D01*
D50*
X168685000Y-84885000D02*
X167750000Y-83950000D01*
D49*
X174000000Y-68250000D02*
X174000000Y-69750000D01*
X175250000Y-71000000D02*
X179660000Y-71000000D01*
X167794888Y-77250000D02*
X173580000Y-77250000D01*
X165405000Y-82550000D02*
X165405000Y-79639888D01*
X166294888Y-78750000D02*
X167794888Y-77250000D01*
D50*
X170275000Y-84885000D02*
X168685000Y-84885000D01*
D49*
X174000000Y-69750000D02*
X175250000Y-71000000D01*
D50*
%TO.N,GND*%
X199500000Y-67250000D02*
X201000000Y-68750000D01*
D51*
X161595000Y-88730000D02*
X161595000Y-87500000D01*
D50*
X175225000Y-84885000D02*
X177135000Y-84885000D01*
X203875000Y-68250000D02*
X202500000Y-68250000D01*
X199500000Y-65750000D02*
X199500000Y-66400000D01*
D51*
X161075000Y-89250000D02*
X161595000Y-88730000D01*
D50*
X175225000Y-86155000D02*
X177155000Y-86155000D01*
D49*
X184350000Y-121040000D02*
X184360000Y-121050000D01*
D50*
X175000000Y-90750000D02*
X173625000Y-90750000D01*
X177135000Y-84885000D02*
X177250000Y-85000000D01*
X173875000Y-107935000D02*
X173000000Y-107060000D01*
X173875000Y-109000000D02*
X173875000Y-107935000D01*
X199500000Y-66400000D02*
X199500000Y-67250000D01*
X177155000Y-86155000D02*
X177250000Y-86250000D01*
X186075000Y-67500000D02*
X186075000Y-68925000D01*
X171635000Y-83615000D02*
X171750000Y-83500000D01*
X170275000Y-83615000D02*
X171635000Y-83615000D01*
X186075000Y-68925000D02*
X186000000Y-69000000D01*
D49*
%TO.N,+12V*%
X159250000Y-96544887D02*
X160294887Y-95500000D01*
X157750000Y-103250000D02*
X159250000Y-101750000D01*
X158800000Y-104300000D02*
X157750000Y-103250000D01*
X161350000Y-104300000D02*
X158800000Y-104300000D01*
X159250000Y-101750000D02*
X159250000Y-96544887D01*
D50*
%TO.N,+3.3V*%
X170500000Y-89250000D02*
X172750000Y-87000000D01*
X165405000Y-88614364D02*
X165405000Y-87500000D01*
D49*
X180780000Y-115970000D02*
X184360000Y-115970000D01*
X177750000Y-89250000D02*
X180000000Y-91500000D01*
X224675000Y-102925000D02*
X224675000Y-118500430D01*
D50*
X164797182Y-89222182D02*
X163869364Y-90150000D01*
X173250000Y-79250000D02*
X176500000Y-76000000D01*
D49*
X169250000Y-89250000D02*
X177750000Y-89250000D01*
D50*
X156400000Y-90150000D02*
X156000000Y-89750000D01*
D49*
X199000000Y-77910000D02*
X202160000Y-74750000D01*
X211750000Y-90150000D02*
X215790000Y-90150000D01*
X224725000Y-88500000D02*
X224725000Y-99700430D01*
X185562081Y-115970000D02*
X199000000Y-102532081D01*
X206250000Y-74750000D02*
X207750000Y-76250000D01*
X223000000Y-101250000D02*
X224675000Y-102925000D01*
X218190000Y-87750000D02*
X223975000Y-87750000D01*
D50*
X172750000Y-83297501D02*
X171797499Y-82345000D01*
X171750000Y-79250000D02*
X173250000Y-79250000D01*
D49*
X180000000Y-115190000D02*
X180780000Y-115970000D01*
X224675000Y-118500430D02*
X223175430Y-120000000D01*
D50*
X170275000Y-80725000D02*
X171750000Y-79250000D01*
D49*
X223175430Y-101250000D02*
X223000000Y-101250000D01*
X224725000Y-99700430D02*
X223175430Y-101250000D01*
D50*
X196000000Y-68750000D02*
X202160000Y-74910000D01*
X176500000Y-76000000D02*
X182250000Y-76000000D01*
D49*
X184360000Y-115970000D02*
X185562081Y-115970000D01*
X207750000Y-83600000D02*
X211750000Y-87600000D01*
X223975000Y-87750000D02*
X224725000Y-88500000D01*
D50*
X163869364Y-90150000D02*
X156400000Y-90150000D01*
D49*
X180000000Y-91500000D02*
X180000000Y-115190000D01*
D50*
X196000000Y-68750000D02*
X196000000Y-67900000D01*
D49*
X205000000Y-74750000D02*
X206250000Y-74750000D01*
D50*
X170275000Y-82345000D02*
X170275000Y-80725000D01*
D49*
X202160000Y-74750000D02*
X205000000Y-74750000D01*
D50*
X169250000Y-89250000D02*
X170500000Y-89250000D01*
D49*
X199000000Y-102532081D02*
X199000000Y-77910000D01*
D50*
X196000000Y-67900000D02*
X197500000Y-66400000D01*
D49*
X211750000Y-87600000D02*
X211750000Y-90150000D01*
X207750000Y-76250000D02*
X207750000Y-83600000D01*
D50*
X182750000Y-75500000D02*
X182750000Y-71560000D01*
D49*
X223175430Y-120000000D02*
X223000000Y-120000000D01*
X215790000Y-90150000D02*
X218190000Y-87750000D01*
D50*
X182250000Y-76000000D02*
X182750000Y-75500000D01*
X172750000Y-87000000D02*
X172750000Y-83297501D01*
X171797499Y-82345000D02*
X170275000Y-82345000D01*
X164797182Y-89222182D02*
X165405000Y-88614364D01*
%TO.N,VDC*%
X168595000Y-86155000D02*
X170275000Y-86155000D01*
X167750000Y-87050000D02*
X167750000Y-87000000D01*
D49*
X161150000Y-114760000D02*
X161160000Y-114750000D01*
X161150000Y-119300000D02*
X161150000Y-114760000D01*
D50*
X167750000Y-87000000D02*
X168595000Y-86155000D01*
%TO.N,/LED1*%
X209500000Y-92490000D02*
X203800000Y-98190000D01*
X203800000Y-98190000D02*
X202140000Y-98190000D01*
X209500000Y-89000000D02*
X209500000Y-92490000D01*
%TO.N,/IO3*%
X207660000Y-100730000D02*
X202140000Y-100730000D01*
X223025000Y-77725000D02*
X223025000Y-75750000D01*
X213230000Y-79980000D02*
X215750000Y-82500000D01*
X215750000Y-82500000D02*
X218250000Y-82500000D01*
X210250000Y-88250000D02*
X210250000Y-98140000D01*
X218250000Y-82500000D02*
X223025000Y-77725000D01*
X211750000Y-79980000D02*
X213230000Y-79980000D01*
X210250000Y-98140000D02*
X207660000Y-100730000D01*
%TO.N,/IO2*%
X207660000Y-103270000D02*
X211750000Y-99180000D01*
X211750000Y-96000000D02*
X218500000Y-89250000D01*
X202140000Y-103270000D02*
X207660000Y-103270000D01*
X211750000Y-99180000D02*
X211750000Y-97770000D01*
X211750000Y-97770000D02*
X211750000Y-96000000D01*
%TO.N,/IO1*%
X217965000Y-97810000D02*
X223025000Y-92750000D01*
X215750000Y-97810000D02*
X217965000Y-97810000D01*
X202140000Y-105810000D02*
X207660000Y-105810000D01*
X207660000Y-105810000D02*
X215660000Y-97810000D01*
X215660000Y-97810000D02*
X215750000Y-97810000D01*
%TO.N,/SPI0 SS*%
X202140000Y-110890000D02*
X207660000Y-110890000D01*
X208275000Y-110275000D02*
X214800000Y-103750000D01*
X214800000Y-103750000D02*
X223000000Y-103750000D01*
X207660000Y-110890000D02*
X208275000Y-110275000D01*
%TO.N,/SPI0 MISO*%
X211000000Y-113750000D02*
X216000000Y-108750000D01*
X216000000Y-108750000D02*
X223000000Y-108750000D01*
%TO.N,/SPI0 MOSI*%
X217380000Y-106250000D02*
X223000000Y-106250000D01*
X202140000Y-115970000D02*
X207660000Y-115970000D01*
X207660000Y-115970000D02*
X217380000Y-106250000D01*
%TO.N,/SPI0 SCK*%
X214920000Y-111250000D02*
X223000000Y-111250000D01*
X202140000Y-118510000D02*
X207660000Y-118510000D01*
X207660000Y-118510000D02*
X214920000Y-111250000D01*
%TO.N,/I2C0 SCL*%
X207660000Y-123590000D02*
X213500000Y-117750000D01*
X213500000Y-117750000D02*
X215750000Y-117750000D01*
X202140000Y-123590000D02*
X207660000Y-123590000D01*
X215750000Y-117750000D02*
X223000000Y-125000000D01*
%TO.N,Net-(J5-Pin_1)*%
X195790000Y-78100000D02*
X195790000Y-72290000D01*
X195790000Y-72290000D02*
X195775000Y-72275000D01*
%TO.N,Net-(J5-Pin_3)*%
X190710000Y-72290000D02*
X190695000Y-72275000D01*
X190710000Y-78100000D02*
X190710000Y-72290000D01*
%TO.N,/I2C1 SCL*%
X188000000Y-87500000D02*
X188750000Y-86750000D01*
X180500000Y-85830000D02*
X182700000Y-88030000D01*
X188750000Y-71750000D02*
X190250000Y-70250000D01*
X196900000Y-65100000D02*
X197500000Y-65100000D01*
X190250000Y-70250000D02*
X193500000Y-70250000D01*
X194500000Y-67500000D02*
X196900000Y-65100000D01*
X188750000Y-86750000D02*
X188750000Y-71750000D01*
X179345000Y-82345000D02*
X180500000Y-83500000D01*
X194500000Y-69250000D02*
X194500000Y-67500000D01*
X180500000Y-83500000D02*
X180500000Y-85830000D01*
X193500000Y-70250000D02*
X194500000Y-69250000D01*
X175225000Y-82345000D02*
X179345000Y-82345000D01*
X182700000Y-88030000D02*
X184360000Y-88030000D01*
%TO.N,/I2C1 SDA*%
X179750000Y-84500000D02*
X178865000Y-83615000D01*
X199500000Y-64750000D02*
X199000000Y-64250000D01*
X194000000Y-67292894D02*
X194000000Y-69042894D01*
X188000000Y-71792894D02*
X188000000Y-85500000D01*
X178865000Y-83615000D02*
X175225000Y-83615000D01*
X193292894Y-69750000D02*
X190042893Y-69750000D01*
X199500000Y-65100000D02*
X199500000Y-64750000D01*
X199000000Y-64250000D02*
X197042894Y-64250000D01*
X194000000Y-69042894D02*
X193292894Y-69750000D01*
X190042893Y-69750000D02*
X188000000Y-71792894D01*
X197042894Y-64250000D02*
X194000000Y-67292894D01*
%TO.N,/PWM2*%
X162325000Y-89250000D02*
X162325000Y-89175000D01*
X162325000Y-89175000D02*
X162865000Y-88635000D01*
X180250000Y-81500000D02*
X181340000Y-80410000D01*
X181340000Y-80410000D02*
X184360000Y-80410000D01*
X173750000Y-81500000D02*
X180250000Y-81500000D01*
X162865000Y-88635000D02*
X162865000Y-87500000D01*
%TO.N,/PWM1*%
X174510601Y-80750000D02*
X174760601Y-81000000D01*
X179250000Y-81000000D02*
X182380000Y-77870000D01*
X179620000Y-77870000D02*
X179000000Y-77250000D01*
X163596447Y-89153553D02*
X164135000Y-88615000D01*
X174760601Y-81000000D02*
X179250000Y-81000000D01*
X184360000Y-77870000D02*
X179620000Y-77870000D01*
X164135000Y-88615000D02*
X164135000Y-87500000D01*
X182380000Y-77870000D02*
X184360000Y-77870000D01*
X163596447Y-89271447D02*
X163596447Y-89153553D01*
%TO.N,Net-(J_LED1-Pin_2)*%
X215750000Y-79940000D02*
X215750000Y-74500000D01*
X215750000Y-74500000D02*
X223000000Y-67250000D01*
D49*
%TO.N,/MotorController/Out2*%
X159000000Y-70420000D02*
X155750000Y-70420000D01*
D52*
X161250000Y-71750000D02*
X161250000Y-76500000D01*
D49*
X166250000Y-64750000D02*
X163000000Y-64750000D01*
D52*
X161250000Y-76500000D02*
X161595000Y-76845000D01*
X161250000Y-71250000D02*
X166250000Y-66250000D01*
X161250000Y-71750000D02*
X161250000Y-71250000D01*
D49*
X159920000Y-70420000D02*
X159000000Y-70420000D01*
D52*
X166250000Y-66250000D02*
X166250000Y-64750000D01*
D49*
X161250000Y-71750000D02*
X159920000Y-70420000D01*
X163000000Y-64750000D02*
X161750000Y-63500000D01*
D52*
X161595000Y-76845000D02*
X161595000Y-82313000D01*
%TO.N,/MotorController/Out1*%
X168750000Y-67000000D02*
X168750000Y-64750000D01*
X168000000Y-71000000D02*
X167750000Y-71250000D01*
D49*
X168750000Y-64750000D02*
X173000000Y-64750000D01*
D52*
X164135000Y-82313000D02*
X164135000Y-74865000D01*
X167750000Y-68000000D02*
X168750000Y-67000000D01*
X164135000Y-74865000D02*
X167750000Y-71250000D01*
X167750000Y-71250000D02*
X167750000Y-68000000D01*
X169500000Y-71000000D02*
X168000000Y-71000000D01*
D49*
X169670000Y-71000000D02*
X169670000Y-74250000D01*
X173000000Y-64750000D02*
X174500000Y-63250000D01*
D50*
%TO.N,Net-(U5-ADJ)*%
X165440000Y-96750000D02*
X165440000Y-93750000D01*
X165440000Y-96750000D02*
X164500000Y-96750000D01*
X161550000Y-99700000D02*
X161350000Y-99700000D01*
X164500000Y-96750000D02*
X161550000Y-99700000D01*
D49*
%TO.N,Net-(U4-LSS)*%
X162865000Y-73635000D02*
X163153984Y-73346016D01*
X162865000Y-82313000D02*
X162865000Y-73635000D01*
D50*
%TO.N,Net-(D1-A)*%
X205237432Y-68250000D02*
X205625000Y-68250000D01*
X205625000Y-68250000D02*
X205625000Y-71125000D01*
%TO.N,Net-(S1-COM_1)*%
X187250000Y-65675000D02*
X186075000Y-64500000D01*
X186075000Y-64500000D02*
X183310000Y-64500000D01*
X183310000Y-64500000D02*
X182750000Y-63940000D01*
X187250000Y-87680000D02*
X187250000Y-65675000D01*
X184360000Y-90570000D02*
X187250000Y-87680000D01*
D49*
%TO.N,unconnected-(U1-3V3_EN-Pad37)*%
X184350000Y-118500000D02*
X184360000Y-118510000D01*
%TO.N,unconnected-(U1-VBUS-Pad40)*%
X184350000Y-126120000D02*
X184360000Y-126130000D01*
D50*
%TO.N,Net-(U1-GPIO21)*%
X197750000Y-79720000D02*
X184360000Y-93110000D01*
X199750000Y-73750000D02*
X197750000Y-75750000D01*
X197750000Y-75750000D02*
X197750000Y-79720000D01*
X202250000Y-71250000D02*
X203750000Y-71250000D01*
%TO.N,Net-(D6-A)*%
X175750000Y-107250000D02*
X175750000Y-108875000D01*
X175750000Y-108875000D02*
X175625000Y-109000000D01*
X175625000Y-109000000D02*
X175500000Y-109000000D01*
%TO.N,Net-(D7-A)*%
X170500000Y-90750000D02*
X171875000Y-90750000D01*
X170000000Y-91250000D02*
X170500000Y-90750000D01*
%TD*%
%TA.AperFunction,Conductor*%
%TO.N,GND*%
G36*
X155019969Y-82009439D02*
G01*
X155254043Y-82106396D01*
X155498932Y-82165188D01*
X155499999Y-82165271D01*
X155500000Y-82165271D01*
X155500000Y-82000000D01*
X156000000Y-82000000D01*
X156000000Y-82165271D01*
X156001067Y-82165188D01*
X156245956Y-82106396D01*
X156480031Y-82009439D01*
X156527484Y-82000000D01*
X160620500Y-82000000D01*
X160687539Y-82019685D01*
X160733294Y-82072489D01*
X160744500Y-82124000D01*
X160744500Y-82359116D01*
X160759486Y-82496911D01*
X160818557Y-82672223D01*
X160913926Y-82830731D01*
X160913928Y-82830733D01*
X160913930Y-82830736D01*
X160935525Y-82853534D01*
X160967336Y-82915739D01*
X160969500Y-82938805D01*
X160969500Y-83120357D01*
X160969502Y-83120381D01*
X160972414Y-83145488D01*
X160972415Y-83145491D01*
X161017793Y-83248264D01*
X161017794Y-83248265D01*
X161097235Y-83327706D01*
X161200009Y-83373085D01*
X161225135Y-83376000D01*
X161964864Y-83375999D01*
X161964879Y-83375997D01*
X161964882Y-83375997D01*
X161989987Y-83373086D01*
X161989988Y-83373085D01*
X161989991Y-83373085D01*
X162092765Y-83327706D01*
X162142319Y-83278152D01*
X162203642Y-83244667D01*
X162273334Y-83249651D01*
X162317681Y-83278152D01*
X162367235Y-83327706D01*
X162470009Y-83373085D01*
X162495135Y-83376000D01*
X163234864Y-83375999D01*
X163234879Y-83375997D01*
X163234882Y-83375997D01*
X163259987Y-83373086D01*
X163259988Y-83373085D01*
X163259991Y-83373085D01*
X163362765Y-83327706D01*
X163412319Y-83278152D01*
X163473642Y-83244667D01*
X163543334Y-83249651D01*
X163587681Y-83278152D01*
X163637235Y-83327706D01*
X163740009Y-83373085D01*
X163765135Y-83376000D01*
X164482715Y-83375999D01*
X164549754Y-83395683D01*
X164576428Y-83418796D01*
X164586462Y-83430376D01*
X164586472Y-83430387D01*
X164631188Y-83472548D01*
X164631190Y-83472549D01*
X164631194Y-83472553D01*
X164731270Y-83523439D01*
X164798309Y-83543124D01*
X164884381Y-83555500D01*
X165984554Y-83555500D01*
X166051593Y-83575185D01*
X166095461Y-83624043D01*
X166332201Y-84097521D01*
X166486909Y-84406936D01*
X166500000Y-84462391D01*
X166500000Y-85884586D01*
X166480315Y-85951625D01*
X166438601Y-85991624D01*
X166372429Y-86030325D01*
X166372428Y-86030326D01*
X166319623Y-86076081D01*
X166319612Y-86076091D01*
X166277451Y-86120807D01*
X166277445Y-86120816D01*
X166226560Y-86220890D01*
X166206877Y-86287921D01*
X166194500Y-86374002D01*
X166194500Y-86714667D01*
X166174815Y-86781706D01*
X166122011Y-86827461D01*
X166052853Y-86837405D01*
X165989297Y-86808380D01*
X165982819Y-86802348D01*
X165902765Y-86722294D01*
X165799992Y-86676915D01*
X165774865Y-86674000D01*
X165035143Y-86674000D01*
X165035117Y-86674002D01*
X165010012Y-86676913D01*
X165010008Y-86676915D01*
X164907235Y-86722293D01*
X164907234Y-86722294D01*
X164857681Y-86771848D01*
X164796358Y-86805333D01*
X164726666Y-86800349D01*
X164682319Y-86771848D01*
X164632765Y-86722294D01*
X164529992Y-86676915D01*
X164504865Y-86674000D01*
X163765143Y-86674000D01*
X163765117Y-86674002D01*
X163740012Y-86676913D01*
X163740008Y-86676915D01*
X163637235Y-86722293D01*
X163637234Y-86722294D01*
X163587681Y-86771848D01*
X163526358Y-86805333D01*
X163456666Y-86800349D01*
X163412319Y-86771848D01*
X163362765Y-86722294D01*
X163259992Y-86676915D01*
X163234865Y-86674000D01*
X162495143Y-86674000D01*
X162495117Y-86674002D01*
X162470012Y-86676913D01*
X162470008Y-86676915D01*
X162367235Y-86722293D01*
X162287794Y-86801734D01*
X162242415Y-86904506D01*
X162242415Y-86904508D01*
X162239500Y-86929631D01*
X162239500Y-88452460D01*
X162219815Y-88519499D01*
X162167011Y-88565254D01*
X162145176Y-88572856D01*
X162074778Y-88590208D01*
X162074774Y-88590209D01*
X161924150Y-88669263D01*
X161796816Y-88782072D01*
X161700182Y-88922068D01*
X161639860Y-89081125D01*
X161639859Y-89081130D01*
X161619355Y-89250000D01*
X161639859Y-89418869D01*
X161639860Y-89418874D01*
X161682585Y-89531529D01*
X161687952Y-89601192D01*
X161654804Y-89662698D01*
X161593666Y-89696520D01*
X161566643Y-89699500D01*
X157213577Y-89699500D01*
X157146538Y-89679815D01*
X157100783Y-89627011D01*
X157090106Y-89586942D01*
X157087663Y-89560582D01*
X157086397Y-89546917D01*
X157030582Y-89350750D01*
X156939673Y-89168179D01*
X156816764Y-89005421D01*
X156816762Y-89005418D01*
X156666041Y-88868019D01*
X156666039Y-88868017D01*
X156492642Y-88760655D01*
X156492635Y-88760651D01*
X156386852Y-88719671D01*
X156302456Y-88686976D01*
X156101976Y-88649500D01*
X155898024Y-88649500D01*
X155697544Y-88686976D01*
X155697541Y-88686976D01*
X155697541Y-88686977D01*
X155507364Y-88760651D01*
X155507357Y-88760655D01*
X155333960Y-88868017D01*
X155333958Y-88868019D01*
X155183237Y-89005418D01*
X155060327Y-89168178D01*
X154969422Y-89350739D01*
X154969417Y-89350752D01*
X154913602Y-89546917D01*
X154894785Y-89749999D01*
X154894785Y-89750001D01*
X154905400Y-89864559D01*
X154891985Y-89933129D01*
X154843628Y-89983561D01*
X154781929Y-90000000D01*
X154424500Y-90000000D01*
X154357461Y-89980315D01*
X154311706Y-89927511D01*
X154300500Y-89876000D01*
X154300500Y-84750002D01*
X154695034Y-84750002D01*
X154714858Y-84976599D01*
X154714860Y-84976610D01*
X154773730Y-85196317D01*
X154773735Y-85196331D01*
X154869863Y-85402478D01*
X154920974Y-85475472D01*
X155602046Y-84794400D01*
X155614835Y-84875148D01*
X155672359Y-84988045D01*
X155761955Y-85077641D01*
X155874852Y-85135165D01*
X155955599Y-85147953D01*
X155274526Y-85829025D01*
X155347513Y-85880132D01*
X155347521Y-85880136D01*
X155553668Y-85976264D01*
X155553682Y-85976269D01*
X155773389Y-86035139D01*
X155773400Y-86035141D01*
X155999998Y-86054966D01*
X156000002Y-86054966D01*
X156226599Y-86035141D01*
X156226610Y-86035139D01*
X156446317Y-85976269D01*
X156446331Y-85976264D01*
X156652478Y-85880136D01*
X156725471Y-85829024D01*
X156044400Y-85147953D01*
X156125148Y-85135165D01*
X156238045Y-85077641D01*
X156327641Y-84988045D01*
X156385165Y-84875148D01*
X156397953Y-84794400D01*
X157079024Y-85475471D01*
X157130136Y-85402478D01*
X157226264Y-85196331D01*
X157226269Y-85196317D01*
X157285139Y-84976610D01*
X157285141Y-84976599D01*
X157304966Y-84750002D01*
X157304966Y-84749997D01*
X157285141Y-84523400D01*
X157285139Y-84523389D01*
X157226269Y-84303682D01*
X157226264Y-84303668D01*
X157130136Y-84097521D01*
X157130132Y-84097513D01*
X157079025Y-84024526D01*
X156397953Y-84705598D01*
X156385165Y-84624852D01*
X156327641Y-84511955D01*
X156238045Y-84422359D01*
X156125148Y-84364835D01*
X156044401Y-84352046D01*
X156725472Y-83670974D01*
X156652478Y-83619863D01*
X156446331Y-83523735D01*
X156446317Y-83523730D01*
X156226610Y-83464860D01*
X156226599Y-83464858D01*
X156000002Y-83445034D01*
X155999998Y-83445034D01*
X155773400Y-83464858D01*
X155773389Y-83464860D01*
X155553682Y-83523730D01*
X155553673Y-83523734D01*
X155347516Y-83619866D01*
X155347512Y-83619868D01*
X155274526Y-83670973D01*
X155274526Y-83670974D01*
X155955599Y-84352046D01*
X155874852Y-84364835D01*
X155761955Y-84422359D01*
X155672359Y-84511955D01*
X155614835Y-84624852D01*
X155602046Y-84705598D01*
X154920974Y-84024526D01*
X154920973Y-84024526D01*
X154869868Y-84097512D01*
X154869866Y-84097516D01*
X154773734Y-84303673D01*
X154773730Y-84303682D01*
X154714860Y-84523389D01*
X154714858Y-84523400D01*
X154695034Y-84749997D01*
X154695034Y-84750002D01*
X154300500Y-84750002D01*
X154300500Y-82124000D01*
X154320185Y-82056961D01*
X154372989Y-82011206D01*
X154424500Y-82000000D01*
X154972516Y-82000000D01*
X155019969Y-82009439D01*
G37*
%TD.AperFunction*%
%TD*%
%TA.AperFunction,Conductor*%
%TO.N,/Current Sense/DCMotor*%
G36*
X168693039Y-81269685D02*
G01*
X168738794Y-81322489D01*
X168750000Y-81374000D01*
X168750000Y-84626000D01*
X168730315Y-84693039D01*
X168677511Y-84738794D01*
X168626000Y-84750000D01*
X167076636Y-84750000D01*
X167009597Y-84730315D01*
X166965727Y-84681454D01*
X166250001Y-83250001D01*
X166250000Y-83250000D01*
X166249999Y-83250000D01*
X164884381Y-83250000D01*
X164817342Y-83230315D01*
X164771587Y-83177511D01*
X164761548Y-83123946D01*
X164760500Y-83123947D01*
X164760499Y-82937330D01*
X164780183Y-82870290D01*
X164785784Y-82862287D01*
X164868049Y-82754070D01*
X164868054Y-82754064D01*
X164945732Y-82586167D01*
X164985500Y-82405497D01*
X164985500Y-81374000D01*
X165005185Y-81306961D01*
X165057989Y-81261206D01*
X165109500Y-81250000D01*
X168626000Y-81250000D01*
X168693039Y-81269685D01*
G37*
%TD.AperFunction*%
%TD*%
%TA.AperFunction,Conductor*%
%TO.N,+5V*%
G36*
X179199500Y-112225167D02*
G01*
X179179815Y-112292206D01*
X179127011Y-112337961D01*
X179057853Y-112347905D01*
X178994297Y-112318880D01*
X178987819Y-112312848D01*
X178922765Y-112247794D01*
X178819992Y-112202415D01*
X178794865Y-112199500D01*
X177705143Y-112199500D01*
X177705117Y-112199502D01*
X177680012Y-112202413D01*
X177680008Y-112202415D01*
X177577235Y-112247793D01*
X177497794Y-112327234D01*
X177452415Y-112430006D01*
X177452415Y-112430008D01*
X177449500Y-112455131D01*
X177449500Y-113544856D01*
X177449502Y-113544882D01*
X177452413Y-113569987D01*
X177452415Y-113569991D01*
X177497793Y-113672764D01*
X177497794Y-113672765D01*
X177577235Y-113752206D01*
X177680009Y-113797585D01*
X177705135Y-113800500D01*
X178794864Y-113800499D01*
X178794879Y-113800497D01*
X178794882Y-113800497D01*
X178819987Y-113797586D01*
X178819988Y-113797585D01*
X178819991Y-113797585D01*
X178922765Y-113752206D01*
X178987819Y-113687152D01*
X179049142Y-113653667D01*
X179118834Y-113658651D01*
X179174767Y-113700523D01*
X179199184Y-113765987D01*
X179199500Y-113774833D01*
X179199500Y-115280191D01*
X179199501Y-115280200D01*
X179208017Y-115317518D01*
X179210345Y-115331217D01*
X179213403Y-115358353D01*
X179214633Y-115369260D01*
X179227271Y-115405380D01*
X179231119Y-115418735D01*
X179239639Y-115456061D01*
X179256250Y-115490554D01*
X179261570Y-115503397D01*
X179274212Y-115539525D01*
X179294572Y-115571927D01*
X179301296Y-115584093D01*
X179317910Y-115618589D01*
X179341771Y-115648510D01*
X179349817Y-115659849D01*
X179370182Y-115692259D01*
X179370184Y-115692262D01*
X180213681Y-116535759D01*
X180247166Y-116597082D01*
X180250000Y-116623440D01*
X180250000Y-122750000D01*
X183304241Y-122750000D01*
X183371280Y-122769685D01*
X183417035Y-122822489D01*
X183426979Y-122891647D01*
X183403194Y-122948728D01*
X183378061Y-122982007D01*
X183283067Y-123172781D01*
X183283062Y-123172794D01*
X183235487Y-123339999D01*
X183235488Y-123340000D01*
X183914428Y-123340000D01*
X183891318Y-123375960D01*
X183850000Y-123516673D01*
X183850000Y-123663327D01*
X183891318Y-123804040D01*
X183914428Y-123840000D01*
X183235488Y-123840000D01*
X183283062Y-124007205D01*
X183283067Y-124007218D01*
X183378061Y-124197991D01*
X183456057Y-124301273D01*
X183480749Y-124366634D01*
X183466184Y-124434969D01*
X183416987Y-124484581D01*
X183357103Y-124500000D01*
X177805684Y-124500000D01*
X177738645Y-124480315D01*
X177713005Y-124458381D01*
X177692194Y-124434969D01*
X176194444Y-122750000D01*
X172871327Y-119011492D01*
X172841501Y-118948308D01*
X172850569Y-118879030D01*
X172895653Y-118825652D01*
X172962438Y-118805121D01*
X173014092Y-118815677D01*
X173085232Y-118847088D01*
X173085236Y-118847089D01*
X173110318Y-118849999D01*
X173705111Y-118849999D01*
X173705112Y-118849998D01*
X173705112Y-118065686D01*
X173717067Y-118077641D01*
X173829964Y-118135165D01*
X173923631Y-118150000D01*
X173986593Y-118150000D01*
X174080260Y-118135165D01*
X174193157Y-118077641D01*
X174205112Y-118065686D01*
X174205112Y-118849999D01*
X174799898Y-118849999D01*
X174799920Y-118849997D01*
X174824981Y-118847091D01*
X174824985Y-118847090D01*
X174927586Y-118801788D01*
X174927591Y-118801785D01*
X175006897Y-118722479D01*
X175006900Y-118722474D01*
X175052201Y-118619877D01*
X175052201Y-118619875D01*
X175055111Y-118594794D01*
X175055112Y-118594791D01*
X175055112Y-118000000D01*
X174270798Y-118000000D01*
X174282753Y-117988045D01*
X174340277Y-117875148D01*
X174360098Y-117750000D01*
X174340277Y-117624852D01*
X174282753Y-117511955D01*
X174270798Y-117500000D01*
X175055111Y-117500000D01*
X175055111Y-116905214D01*
X175055109Y-116905191D01*
X175052203Y-116880130D01*
X175052202Y-116880126D01*
X175006900Y-116777525D01*
X175006897Y-116777520D01*
X174927591Y-116698214D01*
X174927586Y-116698211D01*
X174824988Y-116652910D01*
X174799906Y-116650000D01*
X174205112Y-116650000D01*
X174205112Y-117434314D01*
X174193157Y-117422359D01*
X174080260Y-117364835D01*
X173986593Y-117350000D01*
X173923631Y-117350000D01*
X173829964Y-117364835D01*
X173717067Y-117422359D01*
X173705112Y-117434314D01*
X173705112Y-116650000D01*
X173110326Y-116650000D01*
X173110303Y-116650002D01*
X173085242Y-116652908D01*
X173085238Y-116652909D01*
X172982637Y-116698211D01*
X172982632Y-116698214D01*
X172903326Y-116777520D01*
X172903323Y-116777525D01*
X172858022Y-116880122D01*
X172858022Y-116880124D01*
X172855112Y-116905205D01*
X172855112Y-117500000D01*
X173639426Y-117500000D01*
X173627471Y-117511955D01*
X173569947Y-117624852D01*
X173550126Y-117750000D01*
X173569947Y-117875148D01*
X173627471Y-117988045D01*
X173639426Y-118000000D01*
X172855113Y-118000000D01*
X172855113Y-118594785D01*
X172855114Y-118594808D01*
X172858020Y-118619869D01*
X172858020Y-118619870D01*
X172868819Y-118644327D01*
X172877888Y-118713606D01*
X172848064Y-118776790D01*
X172788813Y-118813820D01*
X172718949Y-118812938D01*
X172662704Y-118776792D01*
X172403708Y-118485421D01*
X172373882Y-118422237D01*
X172382950Y-118352959D01*
X172392314Y-118337037D01*
X172391766Y-118336698D01*
X172394782Y-118331826D01*
X172394783Y-118331822D01*
X172394785Y-118331821D01*
X172485694Y-118149250D01*
X172541509Y-117953083D01*
X172560327Y-117750000D01*
X172541509Y-117546917D01*
X172485694Y-117350750D01*
X172394785Y-117168179D01*
X172271876Y-117005421D01*
X172271874Y-117005418D01*
X172121153Y-116868019D01*
X172121151Y-116868017D01*
X171947754Y-116760655D01*
X171947747Y-116760651D01*
X171850036Y-116722798D01*
X171757568Y-116686976D01*
X171557088Y-116649500D01*
X171353136Y-116649500D01*
X171152656Y-116686976D01*
X171152654Y-116686976D01*
X171152652Y-116686977D01*
X170974395Y-116756034D01*
X170904771Y-116761896D01*
X170843031Y-116729186D01*
X170836931Y-116722798D01*
X169750000Y-115500000D01*
X167739322Y-115500000D01*
X167672283Y-115480315D01*
X167626528Y-115427511D01*
X167616584Y-115358353D01*
X167625766Y-115326190D01*
X167664063Y-115238881D01*
X167711892Y-115050009D01*
X167725108Y-114997821D01*
X167725109Y-114997812D01*
X167745643Y-114750005D01*
X167745643Y-114749994D01*
X167725109Y-114502187D01*
X167725107Y-114502175D01*
X167664063Y-114261118D01*
X167564173Y-114033393D01*
X167428166Y-113825217D01*
X167373641Y-113765987D01*
X167259744Y-113642262D01*
X167063509Y-113489526D01*
X167063507Y-113489525D01*
X167063506Y-113489524D01*
X166844811Y-113371172D01*
X166844802Y-113371169D01*
X166609616Y-113290429D01*
X166364335Y-113249500D01*
X166115665Y-113249500D01*
X165870383Y-113290429D01*
X165635197Y-113371169D01*
X165635188Y-113371172D01*
X165416493Y-113489524D01*
X165220257Y-113642261D01*
X165051833Y-113825217D01*
X164915826Y-114033393D01*
X164815936Y-114261118D01*
X164754892Y-114502175D01*
X164754890Y-114502187D01*
X164734357Y-114749994D01*
X164734357Y-114750005D01*
X164754890Y-114997812D01*
X164754892Y-114997824D01*
X164815936Y-115238881D01*
X164854234Y-115326190D01*
X164863137Y-115395490D01*
X164833160Y-115458602D01*
X164773820Y-115495489D01*
X164740678Y-115500000D01*
X162784500Y-115500000D01*
X162717461Y-115480315D01*
X162671706Y-115427511D01*
X162660500Y-115376000D01*
X162660499Y-113505143D01*
X162660499Y-113505137D01*
X162660499Y-113505136D01*
X162658689Y-113489526D01*
X162657586Y-113480012D01*
X162657585Y-113480010D01*
X162657585Y-113480009D01*
X162612206Y-113377235D01*
X162532765Y-113297794D01*
X162516085Y-113290429D01*
X162429992Y-113252415D01*
X162404865Y-113249500D01*
X159915143Y-113249500D01*
X159915117Y-113249502D01*
X159890012Y-113252413D01*
X159890008Y-113252415D01*
X159787235Y-113297793D01*
X159707794Y-113377234D01*
X159662415Y-113480006D01*
X159662415Y-113480008D01*
X159662415Y-113480009D01*
X159659500Y-113505135D01*
X159659500Y-114749994D01*
X159659501Y-115376000D01*
X159639816Y-115443039D01*
X159587013Y-115488794D01*
X159535501Y-115500000D01*
X156624000Y-115500000D01*
X156556961Y-115480315D01*
X156511206Y-115427511D01*
X156500000Y-115376000D01*
X156500000Y-114304853D01*
X156519685Y-114237814D01*
X156540585Y-114213103D01*
X157874999Y-113000000D01*
X168644785Y-113000000D01*
X168663602Y-113203082D01*
X168719417Y-113399247D01*
X168719422Y-113399260D01*
X168810327Y-113581821D01*
X168933237Y-113744581D01*
X169083958Y-113881980D01*
X169083960Y-113881982D01*
X169142206Y-113918046D01*
X169257363Y-113989348D01*
X169447544Y-114063024D01*
X169648024Y-114100500D01*
X169648026Y-114100500D01*
X169851974Y-114100500D01*
X169851976Y-114100500D01*
X170052456Y-114063024D01*
X170242637Y-113989348D01*
X170416041Y-113881981D01*
X170558399Y-113752205D01*
X170566762Y-113744581D01*
X170566764Y-113744579D01*
X170689673Y-113581821D01*
X170780582Y-113399250D01*
X170836397Y-113203083D01*
X170855215Y-113000000D01*
X173645287Y-113000000D01*
X173664096Y-113202989D01*
X173664097Y-113202992D01*
X173719883Y-113399063D01*
X173719886Y-113399069D01*
X173810751Y-113581551D01*
X173812533Y-113583911D01*
X174352046Y-113044399D01*
X174364835Y-113125148D01*
X174422359Y-113238045D01*
X174511955Y-113327641D01*
X174624852Y-113385165D01*
X174705599Y-113397953D01*
X174169311Y-113934240D01*
X174257585Y-113988897D01*
X174447678Y-114062539D01*
X174648072Y-114100000D01*
X174851928Y-114100000D01*
X175052322Y-114062539D01*
X175242412Y-113988899D01*
X175242416Y-113988897D01*
X175330686Y-113934241D01*
X175330686Y-113934240D01*
X174794401Y-113397953D01*
X174875148Y-113385165D01*
X174988045Y-113327641D01*
X175077641Y-113238045D01*
X175135165Y-113125148D01*
X175147953Y-113044400D01*
X175687465Y-113583912D01*
X175689247Y-113581553D01*
X175689248Y-113581551D01*
X175780113Y-113399069D01*
X175780116Y-113399063D01*
X175835902Y-113202992D01*
X175835903Y-113202989D01*
X175854713Y-113000000D01*
X175854713Y-112999999D01*
X175835903Y-112797010D01*
X175835902Y-112797007D01*
X175780116Y-112600936D01*
X175780113Y-112600930D01*
X175689249Y-112418449D01*
X175689247Y-112418447D01*
X175687465Y-112416087D01*
X175147953Y-112955599D01*
X175135165Y-112874852D01*
X175077641Y-112761955D01*
X174988045Y-112672359D01*
X174875148Y-112614835D01*
X174794400Y-112602046D01*
X175330687Y-112065758D01*
X175242413Y-112011101D01*
X175242411Y-112011100D01*
X175052321Y-111937460D01*
X174851928Y-111900000D01*
X174648072Y-111900000D01*
X174447678Y-111937460D01*
X174257588Y-112011100D01*
X174257581Y-112011104D01*
X174169312Y-112065757D01*
X174169311Y-112065758D01*
X174705600Y-112602046D01*
X174624852Y-112614835D01*
X174511955Y-112672359D01*
X174422359Y-112761955D01*
X174364835Y-112874852D01*
X174352046Y-112955600D01*
X173812533Y-112416087D01*
X173810755Y-112418442D01*
X173810754Y-112418443D01*
X173719886Y-112600930D01*
X173719883Y-112600936D01*
X173664097Y-112797007D01*
X173664096Y-112797010D01*
X173645287Y-112999999D01*
X173645287Y-113000000D01*
X170855215Y-113000000D01*
X170836397Y-112796917D01*
X170780582Y-112600750D01*
X170689673Y-112418179D01*
X170629095Y-112337961D01*
X170566762Y-112255418D01*
X170416041Y-112118019D01*
X170416039Y-112118017D01*
X170242642Y-112010655D01*
X170242635Y-112010651D01*
X170053705Y-111937460D01*
X170052456Y-111936976D01*
X169851976Y-111899500D01*
X169648024Y-111899500D01*
X169447544Y-111936976D01*
X169447541Y-111936976D01*
X169447541Y-111936977D01*
X169257364Y-112010651D01*
X169257357Y-112010655D01*
X169083960Y-112118017D01*
X169083958Y-112118019D01*
X168933237Y-112255418D01*
X168810327Y-112418178D01*
X168719422Y-112600739D01*
X168719417Y-112600752D01*
X168663602Y-112796917D01*
X168644785Y-112999999D01*
X168644785Y-113000000D01*
X157874999Y-113000000D01*
X159250000Y-111750000D01*
X160000000Y-111000000D01*
X179199500Y-111000000D01*
X179199500Y-112225167D01*
G37*
%TD.AperFunction*%
%TD*%
%TA.AperFunction,Conductor*%
%TO.N,VDC*%
G36*
X168693039Y-86269685D02*
G01*
X168738794Y-86322489D01*
X168750000Y-86374000D01*
X168750000Y-88566560D01*
X168730315Y-88633599D01*
X168713681Y-88654241D01*
X168620184Y-88747737D01*
X168524211Y-88900476D01*
X168464631Y-89070745D01*
X168464630Y-89070750D01*
X168444435Y-89249996D01*
X168444435Y-89250003D01*
X168464630Y-89429249D01*
X168464631Y-89429254D01*
X168524211Y-89599523D01*
X168620184Y-89752262D01*
X168713681Y-89845759D01*
X168747166Y-89907082D01*
X168750000Y-89933440D01*
X168750000Y-93126000D01*
X168730315Y-93193039D01*
X168677511Y-93238794D01*
X168626000Y-93250000D01*
X166497192Y-93250000D01*
X166430153Y-93230315D01*
X166386191Y-93181269D01*
X166379673Y-93168179D01*
X166256762Y-93005418D01*
X166106041Y-92868019D01*
X166106039Y-92868017D01*
X165932642Y-92760655D01*
X165932635Y-92760651D01*
X165837546Y-92723814D01*
X165742456Y-92686976D01*
X165541976Y-92649500D01*
X165338024Y-92649500D01*
X165137544Y-92686976D01*
X165137541Y-92686976D01*
X165137541Y-92686977D01*
X164947364Y-92760651D01*
X164947357Y-92760655D01*
X164773960Y-92868017D01*
X164773958Y-92868019D01*
X164623237Y-93005418D01*
X164500326Y-93168179D01*
X164493809Y-93181269D01*
X164446308Y-93232507D01*
X164382808Y-93250000D01*
X159750000Y-93250000D01*
X158420455Y-94170454D01*
X156500000Y-95499999D01*
X156500000Y-103395077D01*
X156486533Y-103451276D01*
X156476561Y-103470889D01*
X156476560Y-103470891D01*
X156476560Y-103470892D01*
X156456877Y-103537921D01*
X156456876Y-103537928D01*
X156450665Y-103581128D01*
X156444500Y-103624002D01*
X156444500Y-109322094D01*
X156424815Y-109389133D01*
X156408181Y-109409775D01*
X156395354Y-109422602D01*
X156341607Y-109454187D01*
X156263739Y-109476342D01*
X156263734Y-109476345D01*
X156174082Y-109544047D01*
X156174081Y-109544047D01*
X156114940Y-109639564D01*
X156114939Y-109639565D01*
X156114939Y-109639567D01*
X156094295Y-109750000D01*
X156094295Y-109750003D01*
X156094295Y-110183505D01*
X156093033Y-110201149D01*
X156092265Y-110206487D01*
X156092265Y-110293507D01*
X156093033Y-110298847D01*
X156094295Y-110316493D01*
X156094295Y-110683506D01*
X156093034Y-110701148D01*
X156092265Y-110706497D01*
X156092265Y-110793504D01*
X156093033Y-110798846D01*
X156094295Y-110816494D01*
X156094295Y-111249997D01*
X156095598Y-111278203D01*
X156095600Y-111278212D01*
X156126342Y-111386260D01*
X156126345Y-111386265D01*
X156200972Y-111485088D01*
X156198022Y-111487315D01*
X156220514Y-111523560D01*
X156220595Y-111523526D01*
X156220822Y-111524056D01*
X156222551Y-111526843D01*
X156223644Y-111530652D01*
X156223646Y-111530658D01*
X156280323Y-111627568D01*
X156280325Y-111627571D01*
X156326081Y-111680376D01*
X156326091Y-111680387D01*
X156370807Y-111722548D01*
X156370809Y-111722549D01*
X156370813Y-111722553D01*
X156432203Y-111753768D01*
X156483038Y-111801698D01*
X156500000Y-111864299D01*
X156500000Y-113571271D01*
X156480315Y-113638310D01*
X156427511Y-113684065D01*
X156381731Y-113695138D01*
X156371806Y-113695597D01*
X156371787Y-113695600D01*
X156263739Y-113726342D01*
X156263734Y-113726345D01*
X156174082Y-113794047D01*
X156174081Y-113794047D01*
X156114940Y-113889564D01*
X156114939Y-113889565D01*
X156114939Y-113889567D01*
X156094295Y-114000000D01*
X156094295Y-114000003D01*
X156094295Y-114433505D01*
X156093033Y-114451149D01*
X156092265Y-114456487D01*
X156092265Y-114543507D01*
X156093033Y-114548847D01*
X156094295Y-114566493D01*
X156094295Y-114933506D01*
X156093034Y-114951148D01*
X156092265Y-114956497D01*
X156092265Y-115043504D01*
X156093033Y-115048846D01*
X156094295Y-115066494D01*
X156094295Y-115499997D01*
X156095598Y-115528203D01*
X156095600Y-115528212D01*
X156126342Y-115636260D01*
X156126343Y-115636262D01*
X156126344Y-115636264D01*
X156194048Y-115725919D01*
X156223422Y-115744106D01*
X156289564Y-115785060D01*
X156289565Y-115785060D01*
X156289567Y-115785061D01*
X156398787Y-115805478D01*
X156461066Y-115837145D01*
X156496339Y-115897458D01*
X156500000Y-115927366D01*
X156500000Y-116000000D01*
X159358907Y-116000000D01*
X159425946Y-116019685D01*
X159471701Y-116072489D01*
X159475089Y-116080667D01*
X159516645Y-116192086D01*
X159516649Y-116192093D01*
X159602809Y-116307187D01*
X159602812Y-116307190D01*
X159717906Y-116393350D01*
X159717913Y-116393354D01*
X159852620Y-116443596D01*
X159852627Y-116443598D01*
X159912155Y-116449999D01*
X159912172Y-116450000D01*
X160785000Y-116450000D01*
X160785000Y-116000000D01*
X161535000Y-116000000D01*
X161535000Y-116450000D01*
X162407828Y-116450000D01*
X162407844Y-116449999D01*
X162467372Y-116443598D01*
X162467379Y-116443596D01*
X162602086Y-116393354D01*
X162602093Y-116393350D01*
X162717187Y-116307190D01*
X162717190Y-116307187D01*
X162803350Y-116192093D01*
X162803354Y-116192086D01*
X162844911Y-116080667D01*
X162886782Y-116024733D01*
X162952246Y-116000316D01*
X162961093Y-116000000D01*
X165365735Y-116000000D01*
X165424752Y-116014945D01*
X165433511Y-116019685D01*
X165635190Y-116128828D01*
X165870386Y-116209571D01*
X166115665Y-116250500D01*
X166364335Y-116250500D01*
X166609614Y-116209571D01*
X166844810Y-116128828D01*
X167046489Y-116019685D01*
X167055248Y-116014945D01*
X167114265Y-116000000D01*
X169194043Y-116000000D01*
X169261082Y-116019685D01*
X169287021Y-116041957D01*
X169521050Y-116307190D01*
X170383921Y-117285111D01*
X170413515Y-117348403D01*
X170410207Y-117401086D01*
X170368715Y-117546914D01*
X170368714Y-117546917D01*
X170349897Y-117749999D01*
X170349897Y-117750000D01*
X170368714Y-117953082D01*
X170424529Y-118149247D01*
X170424534Y-118149260D01*
X170515439Y-118331821D01*
X170638349Y-118494581D01*
X170789070Y-118631980D01*
X170789072Y-118631982D01*
X170880165Y-118688384D01*
X170962475Y-118739348D01*
X171152656Y-118813024D01*
X171353136Y-118850500D01*
X171353138Y-118850500D01*
X171557087Y-118850500D01*
X171557088Y-118850500D01*
X171666496Y-118830048D01*
X171736009Y-118837078D01*
X171782260Y-118869895D01*
X176718980Y-124464845D01*
X176748574Y-124528135D01*
X176750000Y-124546884D01*
X176750000Y-127575500D01*
X176730315Y-127642539D01*
X176677511Y-127688294D01*
X176626000Y-127699500D01*
X156019198Y-127699500D01*
X155952159Y-127679815D01*
X155922370Y-127652962D01*
X154601569Y-126001961D01*
X154575061Y-125937315D01*
X154587711Y-125868600D01*
X154635503Y-125817633D01*
X154698394Y-125800499D01*
X155544864Y-125800499D01*
X155544879Y-125800497D01*
X155544882Y-125800497D01*
X155569987Y-125797586D01*
X155569988Y-125797585D01*
X155569991Y-125797585D01*
X155672765Y-125752206D01*
X155752206Y-125672765D01*
X155797585Y-125569991D01*
X155800500Y-125544865D01*
X155800500Y-125500001D01*
X158844532Y-125500001D01*
X158864364Y-125726686D01*
X158864366Y-125726697D01*
X158923258Y-125946488D01*
X158923261Y-125946497D01*
X159019431Y-126152732D01*
X159019432Y-126152734D01*
X159149954Y-126339141D01*
X159310858Y-126500045D01*
X159310861Y-126500047D01*
X159497266Y-126630568D01*
X159703504Y-126726739D01*
X159923308Y-126785635D01*
X160093214Y-126800499D01*
X160093215Y-126800500D01*
X160093216Y-126800500D01*
X162206785Y-126800500D01*
X162206785Y-126800499D01*
X162376692Y-126785635D01*
X162596496Y-126726739D01*
X162802734Y-126630568D01*
X162989139Y-126500047D01*
X163150047Y-126339139D01*
X163280568Y-126152734D01*
X163376739Y-125946496D01*
X163435635Y-125726692D01*
X163455468Y-125500000D01*
X163444532Y-125375000D01*
X169914528Y-125375000D01*
X169915430Y-125385316D01*
X169915432Y-125385326D01*
X169976566Y-125613483D01*
X169976570Y-125613492D01*
X170076399Y-125827577D01*
X170076400Y-125827579D01*
X170211886Y-126021073D01*
X170211891Y-126021079D01*
X170378917Y-126188105D01*
X170572421Y-126323600D01*
X170786507Y-126423429D01*
X170786516Y-126423433D01*
X170874999Y-126447142D01*
X170875000Y-126447141D01*
X170875000Y-125375000D01*
X169914528Y-125375000D01*
X163444532Y-125375000D01*
X163435635Y-125273308D01*
X163381665Y-125071889D01*
X170750000Y-125071889D01*
X170790507Y-125209844D01*
X170868239Y-125330798D01*
X170976900Y-125424952D01*
X171107685Y-125484680D01*
X171214237Y-125500000D01*
X171285763Y-125500000D01*
X171392315Y-125484680D01*
X171523100Y-125424952D01*
X171625000Y-125336656D01*
X171625000Y-126447142D01*
X171713483Y-126423433D01*
X171713492Y-126423429D01*
X171927577Y-126323600D01*
X171927579Y-126323599D01*
X172121073Y-126188113D01*
X172121079Y-126188108D01*
X172288108Y-126021079D01*
X172288113Y-126021073D01*
X172396995Y-125865573D01*
X172451571Y-125821948D01*
X172521070Y-125814754D01*
X172583425Y-125846277D01*
X172613924Y-125891205D01*
X172665638Y-126022341D01*
X172757077Y-126142922D01*
X172877656Y-126234360D01*
X172877657Y-126234360D01*
X172877658Y-126234361D01*
X173018436Y-126289877D01*
X173106898Y-126300500D01*
X173106903Y-126300500D01*
X174393097Y-126300500D01*
X174393102Y-126300500D01*
X174481564Y-126289877D01*
X174622342Y-126234361D01*
X174742922Y-126142922D01*
X174834361Y-126022342D01*
X174889877Y-125881564D01*
X174900500Y-125793102D01*
X174900500Y-124206898D01*
X174889877Y-124118436D01*
X174834361Y-123977658D01*
X174834360Y-123977657D01*
X174834360Y-123977656D01*
X174742922Y-123857077D01*
X174622343Y-123765639D01*
X174526192Y-123727722D01*
X174481564Y-123710123D01*
X174481563Y-123710122D01*
X174481561Y-123710122D01*
X174435926Y-123704642D01*
X174393102Y-123699500D01*
X173106898Y-123699500D01*
X173067853Y-123704188D01*
X173018438Y-123710122D01*
X172877656Y-123765639D01*
X172757077Y-123857077D01*
X172665638Y-123977658D01*
X172613924Y-124108794D01*
X172571018Y-124163937D01*
X172505110Y-124187130D01*
X172437126Y-124171009D01*
X172396995Y-124134426D01*
X172288113Y-123978926D01*
X172288108Y-123978920D01*
X172121082Y-123811894D01*
X171927578Y-123676399D01*
X171713490Y-123576568D01*
X171713487Y-123576567D01*
X171625000Y-123552856D01*
X171625000Y-124663343D01*
X171523100Y-124575048D01*
X171392315Y-124515320D01*
X171285763Y-124500000D01*
X171214237Y-124500000D01*
X171107685Y-124515320D01*
X170976900Y-124575048D01*
X170868239Y-124669202D01*
X170790507Y-124790156D01*
X170750000Y-124928111D01*
X170750000Y-125071889D01*
X163381665Y-125071889D01*
X163376739Y-125053504D01*
X163280568Y-124847266D01*
X163150047Y-124660861D01*
X163150045Y-124660858D01*
X162989141Y-124499954D01*
X162802734Y-124369432D01*
X162802732Y-124369431D01*
X162596497Y-124273261D01*
X162596488Y-124273258D01*
X162376697Y-124214366D01*
X162376687Y-124214364D01*
X162206785Y-124199500D01*
X162206784Y-124199500D01*
X160093216Y-124199500D01*
X160093215Y-124199500D01*
X159923312Y-124214364D01*
X159923302Y-124214366D01*
X159703511Y-124273258D01*
X159703502Y-124273261D01*
X159497267Y-124369431D01*
X159497265Y-124369432D01*
X159310858Y-124499954D01*
X159149954Y-124660858D01*
X159019432Y-124847265D01*
X159019431Y-124847267D01*
X158923261Y-125053502D01*
X158923258Y-125053511D01*
X158864366Y-125273302D01*
X158864364Y-125273313D01*
X158844532Y-125499998D01*
X158844532Y-125500001D01*
X155800500Y-125500001D01*
X155800499Y-124455136D01*
X155797621Y-124430318D01*
X155797586Y-124430012D01*
X155797585Y-124430010D01*
X155797585Y-124430009D01*
X155752206Y-124327235D01*
X155672765Y-124247794D01*
X155597058Y-124214366D01*
X155569992Y-124202415D01*
X155544865Y-124199500D01*
X154455143Y-124199500D01*
X154455124Y-124199502D01*
X154438780Y-124201397D01*
X154369920Y-124189564D01*
X154318388Y-124142380D01*
X154300500Y-124078222D01*
X154300500Y-123871739D01*
X154320185Y-123804700D01*
X154372989Y-123758945D01*
X154437762Y-123748450D01*
X154452170Y-123749999D01*
X154452172Y-123750000D01*
X154625000Y-123750000D01*
X154625000Y-123125000D01*
X155375000Y-123125000D01*
X155375000Y-123750000D01*
X155547828Y-123750000D01*
X155547844Y-123749999D01*
X155607372Y-123743598D01*
X155607379Y-123743596D01*
X155742086Y-123693354D01*
X155742093Y-123693350D01*
X155857187Y-123607190D01*
X155857190Y-123607187D01*
X155894921Y-123556785D01*
X164549500Y-123556785D01*
X164564364Y-123726687D01*
X164564366Y-123726697D01*
X164623258Y-123946488D01*
X164623261Y-123946497D01*
X164719431Y-124152732D01*
X164719432Y-124152734D01*
X164849954Y-124339141D01*
X165010858Y-124500045D01*
X165010861Y-124500047D01*
X165197266Y-124630568D01*
X165403504Y-124726739D01*
X165623308Y-124785635D01*
X165785230Y-124799801D01*
X165849998Y-124805468D01*
X165850000Y-124805468D01*
X165850002Y-124805468D01*
X165906673Y-124800509D01*
X166076692Y-124785635D01*
X166296496Y-124726739D01*
X166502734Y-124630568D01*
X166510686Y-124625000D01*
X169914528Y-124625000D01*
X170875000Y-124625000D01*
X170875000Y-123552857D01*
X170874999Y-123552856D01*
X170786512Y-123576567D01*
X170786509Y-123576568D01*
X170572422Y-123676399D01*
X170572420Y-123676400D01*
X170378926Y-123811886D01*
X170378920Y-123811891D01*
X170211891Y-123978920D01*
X170211886Y-123978926D01*
X170076400Y-124172420D01*
X170076399Y-124172422D01*
X169976570Y-124386507D01*
X169976566Y-124386516D01*
X169915432Y-124614673D01*
X169915430Y-124614683D01*
X169914528Y-124625000D01*
X166510686Y-124625000D01*
X166689139Y-124500047D01*
X166850047Y-124339139D01*
X166980568Y-124152734D01*
X167076739Y-123946496D01*
X167135635Y-123726692D01*
X167150500Y-123556784D01*
X167150500Y-121443216D01*
X167135635Y-121273308D01*
X167076739Y-121053504D01*
X166980568Y-120847266D01*
X166850047Y-120660861D01*
X166850045Y-120660858D01*
X166689141Y-120499954D01*
X166502734Y-120369432D01*
X166502732Y-120369431D01*
X166296497Y-120273261D01*
X166296488Y-120273258D01*
X166076697Y-120214366D01*
X166076693Y-120214365D01*
X166076692Y-120214365D01*
X166076691Y-120214364D01*
X166076686Y-120214364D01*
X165850002Y-120194532D01*
X165849998Y-120194532D01*
X165623313Y-120214364D01*
X165623302Y-120214366D01*
X165403511Y-120273258D01*
X165403502Y-120273261D01*
X165197267Y-120369431D01*
X165197265Y-120369432D01*
X165010858Y-120499954D01*
X164849954Y-120660858D01*
X164719432Y-120847265D01*
X164719431Y-120847267D01*
X164623261Y-121053502D01*
X164623258Y-121053511D01*
X164564366Y-121273302D01*
X164564364Y-121273312D01*
X164549500Y-121443214D01*
X164549500Y-123556785D01*
X155894921Y-123556785D01*
X155943350Y-123492093D01*
X155943354Y-123492086D01*
X155993596Y-123357379D01*
X155993598Y-123357372D01*
X155999999Y-123297844D01*
X156000000Y-123297827D01*
X156000000Y-123125000D01*
X155375000Y-123125000D01*
X154625000Y-123125000D01*
X154625000Y-122750000D01*
X154745102Y-122750000D01*
X154764505Y-122847545D01*
X154819760Y-122930240D01*
X154902455Y-122985495D01*
X154975376Y-123000000D01*
X155024624Y-123000000D01*
X155097545Y-122985495D01*
X155180240Y-122930240D01*
X155235495Y-122847545D01*
X155254898Y-122750000D01*
X155235495Y-122652455D01*
X155180240Y-122569760D01*
X155097545Y-122514505D01*
X155024624Y-122500000D01*
X154975376Y-122500000D01*
X154902455Y-122514505D01*
X154819760Y-122569760D01*
X154764505Y-122652455D01*
X154745102Y-122750000D01*
X154625000Y-122750000D01*
X154625000Y-121750000D01*
X155375000Y-121750000D01*
X155375000Y-122375000D01*
X156000000Y-122375000D01*
X156000000Y-122202172D01*
X155999999Y-122202155D01*
X155993598Y-122142627D01*
X155993596Y-122142620D01*
X155943354Y-122007913D01*
X155943350Y-122007906D01*
X155857190Y-121892812D01*
X155857187Y-121892809D01*
X155742093Y-121806649D01*
X155742086Y-121806645D01*
X155607379Y-121756403D01*
X155607372Y-121756401D01*
X155547844Y-121750000D01*
X155375000Y-121750000D01*
X154625000Y-121750000D01*
X154452172Y-121750000D01*
X154437755Y-121751550D01*
X154368996Y-121739144D01*
X154317858Y-121691534D01*
X154300500Y-121628260D01*
X154300500Y-120347844D01*
X158400000Y-120347844D01*
X158406401Y-120407372D01*
X158406403Y-120407379D01*
X158456645Y-120542086D01*
X158456649Y-120542093D01*
X158542809Y-120657187D01*
X158542812Y-120657190D01*
X158657906Y-120743350D01*
X158657913Y-120743354D01*
X158792620Y-120793596D01*
X158792627Y-120793598D01*
X158852155Y-120799999D01*
X158852172Y-120800000D01*
X160775000Y-120800000D01*
X160775000Y-119800000D01*
X161525000Y-119800000D01*
X161525000Y-120800000D01*
X163447828Y-120800000D01*
X163447844Y-120799999D01*
X163507372Y-120793598D01*
X163507379Y-120793596D01*
X163642086Y-120743354D01*
X163642093Y-120743350D01*
X163757187Y-120657190D01*
X163757190Y-120657187D01*
X163843350Y-120542093D01*
X163843354Y-120542086D01*
X163893596Y-120407379D01*
X163893598Y-120407372D01*
X163899999Y-120347844D01*
X163900000Y-120347827D01*
X163900000Y-119675000D01*
X162730748Y-119675000D01*
X162781761Y-119630798D01*
X162859493Y-119509844D01*
X162900000Y-119371889D01*
X162900000Y-119228111D01*
X162859493Y-119090156D01*
X162781761Y-118969202D01*
X162730748Y-118925000D01*
X163900000Y-118925000D01*
X163900000Y-118252172D01*
X163899999Y-118252155D01*
X163893598Y-118192627D01*
X163893596Y-118192620D01*
X163843354Y-118057913D01*
X163843350Y-118057906D01*
X163757190Y-117942812D01*
X163757187Y-117942809D01*
X163642093Y-117856649D01*
X163642086Y-117856645D01*
X163507379Y-117806403D01*
X163507372Y-117806401D01*
X163447844Y-117800000D01*
X161525000Y-117800000D01*
X161525000Y-118800000D01*
X160775000Y-118800000D01*
X160775000Y-117800000D01*
X158852155Y-117800000D01*
X158792627Y-117806401D01*
X158792620Y-117806403D01*
X158657913Y-117856645D01*
X158657906Y-117856649D01*
X158542812Y-117942809D01*
X158542809Y-117942812D01*
X158456649Y-118057906D01*
X158456645Y-118057913D01*
X158406403Y-118192620D01*
X158406401Y-118192627D01*
X158400000Y-118252155D01*
X158400000Y-118925000D01*
X159569252Y-118925000D01*
X159518239Y-118969202D01*
X159440507Y-119090156D01*
X159400000Y-119228111D01*
X159400000Y-119371889D01*
X159440507Y-119509844D01*
X159518239Y-119630798D01*
X159569252Y-119675000D01*
X158400000Y-119675000D01*
X158400000Y-120347844D01*
X154300500Y-120347844D01*
X154300500Y-90841712D01*
X154320185Y-90774673D01*
X154372989Y-90728918D01*
X154414986Y-90718077D01*
X155315726Y-90648790D01*
X155384076Y-90663275D01*
X155390512Y-90666998D01*
X155507359Y-90739346D01*
X155507360Y-90739346D01*
X155507363Y-90739348D01*
X155697544Y-90813024D01*
X155898024Y-90850500D01*
X155898026Y-90850500D01*
X156101974Y-90850500D01*
X156101976Y-90850500D01*
X156302456Y-90813024D01*
X156492637Y-90739348D01*
X156666041Y-90631981D01*
X156666044Y-90631978D01*
X156670615Y-90628527D01*
X156671517Y-90629721D01*
X156727880Y-90602245D01*
X156748612Y-90600500D01*
X163837102Y-90600500D01*
X163850984Y-90601279D01*
X163859551Y-90602245D01*
X163886397Y-90605270D01*
X163886397Y-90605269D01*
X163886399Y-90605270D01*
X163942600Y-90594635D01*
X163947090Y-90593872D01*
X164003651Y-90585348D01*
X164003655Y-90585345D01*
X164011811Y-90582830D01*
X164019833Y-90580024D01*
X164019834Y-90580023D01*
X164019836Y-90580023D01*
X164070452Y-90553270D01*
X164074457Y-90551248D01*
X164126006Y-90526425D01*
X164126007Y-90526423D01*
X164126009Y-90526423D01*
X164133059Y-90521616D01*
X164139898Y-90516567D01*
X164139902Y-90516566D01*
X164180338Y-90476128D01*
X164183624Y-90472962D01*
X164225558Y-90434055D01*
X164225560Y-90434050D01*
X164231351Y-90426790D01*
X164232007Y-90427313D01*
X164241396Y-90415070D01*
X164697466Y-89959001D01*
X164758789Y-89925516D01*
X164785147Y-89922682D01*
X164882238Y-89922682D01*
X165047407Y-89881972D01*
X165126874Y-89840263D01*
X165198031Y-89802918D01*
X165198032Y-89802916D01*
X165198034Y-89802916D01*
X165325365Y-89690111D01*
X165422000Y-89550112D01*
X165482322Y-89391054D01*
X165502827Y-89222182D01*
X165502683Y-89220996D01*
X165502827Y-89220129D01*
X165502827Y-89214680D01*
X165503733Y-89214680D01*
X165514143Y-89152072D01*
X165538095Y-89118371D01*
X165700748Y-88955718D01*
X165711098Y-88946469D01*
X165738970Y-88924243D01*
X165738972Y-88924238D01*
X165742364Y-88920584D01*
X165773887Y-88896061D01*
X166500000Y-88500000D01*
X166500000Y-86374000D01*
X166519685Y-86306961D01*
X166572489Y-86261206D01*
X166624000Y-86250000D01*
X168626000Y-86250000D01*
X168693039Y-86269685D01*
G37*
%TD.AperFunction*%
%TD*%
%TA.AperFunction,Conductor*%
%TO.N,+12V*%
G36*
X161943039Y-103519685D02*
G01*
X161988794Y-103572489D01*
X162000000Y-103624000D01*
X162000000Y-106698638D01*
X161980315Y-106765677D01*
X161963681Y-106786319D01*
X159000000Y-109749999D01*
X159000000Y-111376000D01*
X158980315Y-111443039D01*
X158927511Y-111488794D01*
X158876000Y-111500000D01*
X156624000Y-111500000D01*
X156556961Y-111480315D01*
X156511206Y-111427511D01*
X156500000Y-111376000D01*
X156500000Y-109801362D01*
X156519685Y-109734323D01*
X156536319Y-109713681D01*
X156750000Y-109500000D01*
X156750000Y-103624000D01*
X156769685Y-103556961D01*
X156822489Y-103511206D01*
X156874000Y-103500000D01*
X161876000Y-103500000D01*
X161943039Y-103519685D01*
G37*
%TD.AperFunction*%
%TD*%
%TA.AperFunction,Conductor*%
%TO.N,+5V*%
G36*
X177434099Y-90070185D02*
G01*
X177454741Y-90086819D01*
X179163181Y-91795259D01*
X179196666Y-91856582D01*
X179199500Y-91882940D01*
X179199500Y-111000000D01*
X160000000Y-111000000D01*
X159250000Y-111750000D01*
X159250000Y-111604922D01*
X159263469Y-111548718D01*
X159273439Y-111529111D01*
X159293124Y-111462072D01*
X159305500Y-111376000D01*
X159305500Y-109927903D01*
X159325185Y-109860864D01*
X159341819Y-109840222D01*
X160685702Y-108496339D01*
X162122042Y-107060000D01*
X171894785Y-107060000D01*
X171913602Y-107263082D01*
X171969417Y-107459247D01*
X171969422Y-107459260D01*
X172060327Y-107641821D01*
X172183237Y-107804581D01*
X172333958Y-107941980D01*
X172333960Y-107941982D01*
X172416232Y-107992922D01*
X172507363Y-108049348D01*
X172697544Y-108123024D01*
X172898024Y-108160500D01*
X172898026Y-108160500D01*
X173101971Y-108160500D01*
X173101976Y-108160500D01*
X173102316Y-108160436D01*
X173102481Y-108160453D01*
X173107684Y-108159971D01*
X173107778Y-108160988D01*
X173171828Y-108167461D01*
X173226511Y-108210953D01*
X173248999Y-108277105D01*
X173232153Y-108344913D01*
X173208538Y-108371543D01*
X173209497Y-108372502D01*
X173203501Y-108378497D01*
X173114139Y-108496339D01*
X173059882Y-108633924D01*
X173059882Y-108633925D01*
X173049500Y-108720381D01*
X173049500Y-109279618D01*
X173059882Y-109366074D01*
X173059882Y-109366075D01*
X173059883Y-109366077D01*
X173113418Y-109501833D01*
X173114139Y-109503660D01*
X173203499Y-109621500D01*
X173321339Y-109710860D01*
X173321342Y-109710862D01*
X173458923Y-109765117D01*
X173516562Y-109772039D01*
X173545381Y-109775500D01*
X173545382Y-109775500D01*
X174204619Y-109775500D01*
X174226232Y-109772904D01*
X174291077Y-109765117D01*
X174428658Y-109710862D01*
X174546500Y-109621500D01*
X174635862Y-109503658D01*
X174635864Y-109503652D01*
X174640018Y-109496266D01*
X174641952Y-109497353D01*
X174677547Y-109451601D01*
X174743454Y-109428405D01*
X174811439Y-109444523D01*
X174859918Y-109494838D01*
X174863112Y-109501833D01*
X174864139Y-109503660D01*
X174953499Y-109621500D01*
X175071339Y-109710860D01*
X175071342Y-109710862D01*
X175208923Y-109765117D01*
X175266562Y-109772039D01*
X175295381Y-109775500D01*
X175295382Y-109775500D01*
X175954619Y-109775500D01*
X175976232Y-109772904D01*
X176041077Y-109765117D01*
X176178658Y-109710862D01*
X176296500Y-109621500D01*
X176385862Y-109503658D01*
X176440117Y-109366077D01*
X176450500Y-109279618D01*
X176450500Y-108720382D01*
X176440117Y-108633923D01*
X176385862Y-108496342D01*
X176385860Y-108496339D01*
X176296500Y-108378499D01*
X176249575Y-108342915D01*
X176208051Y-108286722D01*
X176200500Y-108244111D01*
X176200500Y-108162513D01*
X176220185Y-108095474D01*
X176249573Y-108063710D01*
X176342922Y-107992922D01*
X176434361Y-107872342D01*
X176489877Y-107731564D01*
X176500500Y-107643102D01*
X176500500Y-106856898D01*
X176489877Y-106768436D01*
X176434361Y-106627658D01*
X176434360Y-106627657D01*
X176434360Y-106627656D01*
X176342922Y-106507077D01*
X176222343Y-106415639D01*
X176081561Y-106360122D01*
X176035926Y-106354642D01*
X175993102Y-106349500D01*
X175006898Y-106349500D01*
X174967853Y-106354188D01*
X174918438Y-106360122D01*
X174777656Y-106415639D01*
X174657077Y-106507077D01*
X174565639Y-106627656D01*
X174510122Y-106768438D01*
X174504188Y-106817853D01*
X174499500Y-106856898D01*
X174499500Y-106856903D01*
X174499500Y-107643105D01*
X174499512Y-107643307D01*
X174499500Y-107643359D01*
X174499500Y-107646808D01*
X174498707Y-107646808D01*
X174483856Y-107711400D01*
X174433872Y-107760220D01*
X174365429Y-107774266D01*
X174300257Y-107749080D01*
X174264011Y-107704494D01*
X174251425Y-107678358D01*
X174251423Y-107678356D01*
X174246620Y-107671310D01*
X174241567Y-107664465D01*
X174241566Y-107664462D01*
X174201152Y-107624048D01*
X174197935Y-107620708D01*
X174159057Y-107578807D01*
X174151790Y-107573012D01*
X174152310Y-107572359D01*
X174140070Y-107562966D01*
X174083387Y-107506283D01*
X174049902Y-107444960D01*
X174051801Y-107384669D01*
X174086397Y-107263083D01*
X174105215Y-107060000D01*
X174097617Y-106978008D01*
X174086397Y-106856917D01*
X174061222Y-106768438D01*
X174030582Y-106660750D01*
X174014104Y-106627658D01*
X173954062Y-106507077D01*
X173939673Y-106478179D01*
X173816764Y-106315421D01*
X173816762Y-106315418D01*
X173666041Y-106178019D01*
X173666039Y-106178017D01*
X173492642Y-106070655D01*
X173492635Y-106070651D01*
X173397546Y-106033814D01*
X173302456Y-105996976D01*
X173101976Y-105959500D01*
X172898024Y-105959500D01*
X172697544Y-105996976D01*
X172697541Y-105996976D01*
X172697541Y-105996977D01*
X172507364Y-106070651D01*
X172507357Y-106070655D01*
X172333960Y-106178017D01*
X172333958Y-106178019D01*
X172183237Y-106315418D01*
X172060327Y-106478178D01*
X171969422Y-106660739D01*
X171969417Y-106660752D01*
X171913602Y-106856917D01*
X171894785Y-107059999D01*
X171894785Y-107060000D01*
X162122042Y-107060000D01*
X162179702Y-107002340D01*
X162201558Y-106978008D01*
X162218192Y-106957366D01*
X162222553Y-106951825D01*
X162273439Y-106851749D01*
X162293124Y-106784710D01*
X162305500Y-106698638D01*
X162305500Y-105471313D01*
X162325185Y-105404274D01*
X162377989Y-105358519D01*
X162415216Y-105348138D01*
X162419991Y-105347585D01*
X162522765Y-105302206D01*
X162602206Y-105222765D01*
X162647585Y-105119991D01*
X162650500Y-105094865D01*
X162650499Y-103505136D01*
X162650497Y-103505117D01*
X162647586Y-103480012D01*
X162647585Y-103480010D01*
X162647585Y-103480009D01*
X162602206Y-103377235D01*
X162522765Y-103297794D01*
X162419992Y-103252415D01*
X162394868Y-103249500D01*
X162394865Y-103249500D01*
X162103940Y-103249500D01*
X162047738Y-103236032D01*
X162029114Y-103226562D01*
X162029108Y-103226560D01*
X161962078Y-103206877D01*
X161962072Y-103206876D01*
X161876000Y-103194500D01*
X161875997Y-103194500D01*
X159374000Y-103194500D01*
X159306961Y-103174815D01*
X159261206Y-103122011D01*
X159250000Y-103070500D01*
X159250000Y-102933440D01*
X159269685Y-102866401D01*
X159286319Y-102845759D01*
X159879815Y-102252263D01*
X159879816Y-102252262D01*
X159900182Y-102219847D01*
X159908222Y-102208515D01*
X159932091Y-102178587D01*
X159948704Y-102144088D01*
X159955413Y-102131948D01*
X159975789Y-102099522D01*
X159988430Y-102063395D01*
X159993752Y-102050545D01*
X160010359Y-102016061D01*
X160018877Y-101978737D01*
X160022722Y-101965393D01*
X160035368Y-101929255D01*
X160039655Y-101891201D01*
X160041982Y-101877511D01*
X160050499Y-101840198D01*
X160050500Y-101840195D01*
X160050500Y-101659806D01*
X160050500Y-100836547D01*
X160070185Y-100769508D01*
X160122989Y-100723753D01*
X160192147Y-100713809D01*
X160224579Y-100723110D01*
X160280009Y-100747585D01*
X160305135Y-100750500D01*
X162394864Y-100750499D01*
X162394879Y-100750497D01*
X162394882Y-100750497D01*
X162419987Y-100747586D01*
X162419988Y-100747585D01*
X162419991Y-100747585D01*
X162522765Y-100702206D01*
X162602206Y-100622765D01*
X162647585Y-100519991D01*
X162650500Y-100494865D01*
X162650499Y-99440000D01*
X171894785Y-99440000D01*
X171913602Y-99643082D01*
X171969417Y-99839247D01*
X171969422Y-99839260D01*
X172060327Y-100021821D01*
X172183237Y-100184581D01*
X172333958Y-100321980D01*
X172333960Y-100321982D01*
X172433141Y-100383392D01*
X172507363Y-100429348D01*
X172697544Y-100503024D01*
X172898024Y-100540500D01*
X172898026Y-100540500D01*
X173101974Y-100540500D01*
X173101976Y-100540500D01*
X173302456Y-100503024D01*
X173492637Y-100429348D01*
X173666041Y-100321981D01*
X173816764Y-100184579D01*
X173939673Y-100021821D01*
X174030582Y-99839250D01*
X174086397Y-99643083D01*
X174105215Y-99440000D01*
X174086397Y-99236917D01*
X174030582Y-99040750D01*
X173939673Y-98858179D01*
X173816764Y-98695421D01*
X173816762Y-98695418D01*
X173666041Y-98558019D01*
X173666039Y-98558017D01*
X173492642Y-98450655D01*
X173492635Y-98450651D01*
X173397546Y-98413814D01*
X173302456Y-98376976D01*
X173101976Y-98339500D01*
X172898024Y-98339500D01*
X172697544Y-98376976D01*
X172697541Y-98376976D01*
X172697541Y-98376977D01*
X172507364Y-98450651D01*
X172507357Y-98450655D01*
X172333960Y-98558017D01*
X172333958Y-98558019D01*
X172183237Y-98695418D01*
X172060327Y-98858178D01*
X171969422Y-99040739D01*
X171969417Y-99040752D01*
X171913602Y-99236917D01*
X171894785Y-99439999D01*
X171894785Y-99440000D01*
X162650499Y-99440000D01*
X162650499Y-99287964D01*
X162670184Y-99220926D01*
X162686813Y-99200289D01*
X164423211Y-97463890D01*
X164484532Y-97430407D01*
X164554224Y-97435391D01*
X164609842Y-97476844D01*
X164623234Y-97494577D01*
X164623236Y-97494580D01*
X164773958Y-97631980D01*
X164773960Y-97631982D01*
X164873141Y-97693392D01*
X164947363Y-97739348D01*
X165137544Y-97813024D01*
X165338024Y-97850500D01*
X165338026Y-97850500D01*
X165541974Y-97850500D01*
X165541976Y-97850500D01*
X165742456Y-97813024D01*
X165932637Y-97739348D01*
X166106041Y-97631981D01*
X166256764Y-97494579D01*
X166379673Y-97331821D01*
X166470582Y-97149250D01*
X166526397Y-96953083D01*
X166545215Y-96750000D01*
X171954785Y-96750000D01*
X171973602Y-96953082D01*
X172029417Y-97149247D01*
X172029422Y-97149260D01*
X172120327Y-97331821D01*
X172243237Y-97494581D01*
X172393958Y-97631980D01*
X172393960Y-97631982D01*
X172493141Y-97693392D01*
X172567363Y-97739348D01*
X172757544Y-97813024D01*
X172958024Y-97850500D01*
X172958026Y-97850500D01*
X173161974Y-97850500D01*
X173161976Y-97850500D01*
X173362456Y-97813024D01*
X173552637Y-97739348D01*
X173726041Y-97631981D01*
X173876764Y-97494579D01*
X173999673Y-97331821D01*
X174090582Y-97149250D01*
X174146397Y-96953083D01*
X174165215Y-96750000D01*
X174146397Y-96546917D01*
X174090582Y-96350750D01*
X174089604Y-96348786D01*
X174013210Y-96195365D01*
X173999673Y-96168179D01*
X173876764Y-96005421D01*
X173876762Y-96005418D01*
X173726041Y-95868019D01*
X173726039Y-95868017D01*
X173552642Y-95760655D01*
X173552635Y-95760651D01*
X173404033Y-95703083D01*
X173362456Y-95686976D01*
X173161976Y-95649500D01*
X172958024Y-95649500D01*
X172757544Y-95686976D01*
X172757541Y-95686976D01*
X172757541Y-95686977D01*
X172567364Y-95760651D01*
X172567357Y-95760655D01*
X172393960Y-95868017D01*
X172393958Y-95868019D01*
X172243237Y-96005418D01*
X172120327Y-96168178D01*
X172029422Y-96350739D01*
X172029417Y-96350752D01*
X171973602Y-96546917D01*
X171954785Y-96749999D01*
X171954785Y-96750000D01*
X166545215Y-96750000D01*
X166526397Y-96546917D01*
X166470582Y-96350750D01*
X166469604Y-96348786D01*
X166393210Y-96195365D01*
X166379673Y-96168179D01*
X166256764Y-96005421D01*
X166256762Y-96005418D01*
X166106042Y-95868020D01*
X166106041Y-95868019D01*
X165949221Y-95770920D01*
X165902587Y-95718893D01*
X165890500Y-95665494D01*
X165890500Y-94834505D01*
X165910185Y-94767466D01*
X165949221Y-94729079D01*
X166106041Y-94631981D01*
X166256764Y-94494579D01*
X166379673Y-94331821D01*
X166470582Y-94149250D01*
X166526397Y-93953083D01*
X166545215Y-93750000D01*
X166539742Y-93690940D01*
X166553157Y-93622372D01*
X166601513Y-93571940D01*
X166663213Y-93555500D01*
X168625990Y-93555500D01*
X168626000Y-93555500D01*
X168690941Y-93548518D01*
X168742452Y-93537312D01*
X168780658Y-93526354D01*
X168877571Y-93469675D01*
X168930375Y-93423920D01*
X168930382Y-93423912D01*
X168930387Y-93423908D01*
X168972548Y-93379192D01*
X168972553Y-93379187D01*
X169023439Y-93279111D01*
X169043124Y-93212072D01*
X169055500Y-93126000D01*
X169055500Y-91939714D01*
X169075185Y-91872675D01*
X169127989Y-91826920D01*
X169197147Y-91816976D01*
X169254426Y-91840910D01*
X169257076Y-91842919D01*
X169257078Y-91842922D01*
X169377658Y-91934361D01*
X169518436Y-91989877D01*
X169606898Y-92000500D01*
X169606903Y-92000500D01*
X170393097Y-92000500D01*
X170393102Y-92000500D01*
X170481564Y-91989877D01*
X170622342Y-91934361D01*
X170742922Y-91842922D01*
X170834361Y-91722342D01*
X170889877Y-91581564D01*
X170900500Y-91493102D01*
X170900500Y-91340670D01*
X170920185Y-91273631D01*
X170972989Y-91227876D01*
X171042147Y-91217932D01*
X171105703Y-91246957D01*
X171123304Y-91265745D01*
X171203499Y-91371500D01*
X171313672Y-91455046D01*
X171321342Y-91460862D01*
X171458923Y-91515117D01*
X171516562Y-91522039D01*
X171545381Y-91525500D01*
X171545382Y-91525500D01*
X172204619Y-91525500D01*
X172226232Y-91522904D01*
X172291077Y-91515117D01*
X172428658Y-91460862D01*
X172546500Y-91371500D01*
X172635862Y-91253658D01*
X172635864Y-91253652D01*
X172640018Y-91246266D01*
X172641952Y-91247353D01*
X172677547Y-91201601D01*
X172743454Y-91178405D01*
X172811439Y-91194523D01*
X172859918Y-91244838D01*
X172863112Y-91251833D01*
X172864139Y-91253660D01*
X172953499Y-91371500D01*
X173063672Y-91455046D01*
X173071342Y-91460862D01*
X173208923Y-91515117D01*
X173266562Y-91522039D01*
X173295381Y-91525500D01*
X173295382Y-91525500D01*
X173954619Y-91525500D01*
X173976232Y-91522904D01*
X174041077Y-91515117D01*
X174178658Y-91460862D01*
X174296500Y-91371500D01*
X174355747Y-91293369D01*
X174411938Y-91251847D01*
X174481660Y-91247294D01*
X174536777Y-91275478D01*
X174599148Y-91330734D01*
X174749775Y-91409790D01*
X174914944Y-91450500D01*
X175085056Y-91450500D01*
X175250225Y-91409790D01*
X175329692Y-91368081D01*
X175400849Y-91330736D01*
X175400850Y-91330734D01*
X175400852Y-91330734D01*
X175528183Y-91217929D01*
X175624818Y-91077930D01*
X175685140Y-90918872D01*
X175705645Y-90750000D01*
X175685140Y-90581128D01*
X175670980Y-90543792D01*
X175624817Y-90422068D01*
X175528182Y-90282070D01*
X175511528Y-90267316D01*
X175474401Y-90208127D01*
X175475167Y-90138262D01*
X175513584Y-90079902D01*
X175577455Y-90051576D01*
X175593754Y-90050500D01*
X177367060Y-90050500D01*
X177434099Y-90070185D01*
G37*
%TD.AperFunction*%
%TD*%
%TA.AperFunction,Conductor*%
%TO.N,GND*%
G36*
X165712362Y-68188766D02*
G01*
X166849491Y-69199547D01*
X166891910Y-69263961D01*
X166899500Y-69310910D01*
X166899500Y-70835992D01*
X166879538Y-70910492D01*
X166855859Y-70941351D01*
X165633955Y-72163255D01*
X165567160Y-72201819D01*
X165490032Y-72201819D01*
X165423237Y-72163255D01*
X165417232Y-72156886D01*
X163688767Y-70212363D01*
X163654192Y-70143419D01*
X163658721Y-70066424D01*
X163694767Y-70008020D01*
X165508019Y-68194768D01*
X165574809Y-68156208D01*
X165651937Y-68156208D01*
X165712362Y-68188766D01*
G37*
%TD.AperFunction*%
%TD*%
M02*
