M48
INCH,TZ
T1C0.0157
T2C0.0197
T3C0.0315
T4C0.0374
T5C0.0394
T6C0.0402
T7C0.0433
T8C0.0472
%
G90
G05
T1
X62598Y-32776
X62598Y-33169
X62598Y-33563
X62598Y-33957
X62598Y-34350
X63022Y-32785
X63022Y-33179
X63022Y-33573
X63022Y-33967
X63022Y-34360
X63415Y-35138
X63484Y-33071
X63484Y-33465
X63484Y-33858
X63907Y-33179
X63907Y-33770
X63907Y-35138
X64272Y-39961
X64272Y-40354
X64370Y-33474
X64408Y-35146
X64764Y-27559
X64793Y-33179
X64793Y-33770
X64881Y-35127
X65059Y-27362
X65256Y-33071
X65256Y-33465
X65256Y-33858
X65354Y-27165
X65354Y-27559
X65354Y-39469
X65354Y-39862
X65354Y-40453
X65354Y-40846
X65748Y-39173
X65748Y-41142
X66339Y-39173
X66339Y-41142
X66634Y-35138
X66634Y-39469
X66634Y-39862
X66634Y-40453
X66634Y-40846
X67618Y-32874
X68406Y-32087
X68705Y-31791
X68898Y-35728
X69783Y-33465
X69783Y-33957
X70768Y-33268
X73228Y-27165
X74016Y-33661
X74016Y-34449
X78642Y-29035
X79626Y-28051
X79724Y-26870
X82480Y-35039
X82776Y-34744
X83071Y-44783
X86024Y-35138
T2
X61024Y-48327
X61024Y-49213
X62205Y-41929
X63681Y-25000
X64118Y-29862
X65453Y-29528
X68504Y-26870
X68701Y-24902
X69882Y-40650
X70177Y-44488
X70472Y-30413
X70472Y-31299
T3
X61417Y-33366
X61417Y-35335
X62106Y-38681
X62106Y-40650
X63108Y-37598
X64092Y-37598
X65134Y-36909
X65134Y-38091
X65470Y-31004
X66455Y-31004
X66831Y-44488
X67502Y-46358
X67618Y-31201
X68110Y-39150
X68110Y-42150
X68134Y-36909
X68134Y-38091
X68486Y-46358
X68799Y-44488
X69587Y-31201
X71949Y-25173
X71949Y-28173
X77165Y-27067
X79134Y-27067
X83366Y-31488
X83366Y-34488
X83366Y-35492
X83366Y-38492
X84941Y-31472
X84941Y-34472
X84941Y-35508
X84941Y-38508
T4
X87795Y-38878
X87795Y-39862
X87795Y-40846
X87795Y-41831
X87795Y-42815
X87795Y-43799
X87795Y-46260
X87795Y-47244
X87795Y-48228
X87795Y-49213
T5
X65453Y-25492
X66437Y-25492
X67421Y-49213
X68406Y-49213
X75077Y-28455
X76077Y-28455
X77077Y-28455
X87795Y-25492
X87795Y-26476
X87805Y-28839
X87805Y-29823
X87805Y-32185
X87805Y-33169
X87805Y-35531
X87805Y-36516
T6
X72583Y-30657
X72583Y-31657
X72583Y-32657
X72583Y-33657
X72583Y-34657
X72583Y-35657
X72583Y-36657
X72583Y-37657
X72583Y-38657
X72583Y-39657
X72583Y-40657
X72583Y-41657
X72583Y-42657
X72583Y-43657
X72583Y-44657
X72583Y-45657
X72583Y-46657
X72583Y-47657
X72583Y-48657
X72583Y-49657
X75083Y-30748
X76083Y-30748
X77083Y-30748
X79583Y-30657
X79583Y-31657
X79583Y-32657
X79583Y-33657
X79583Y-34657
X79583Y-35657
X79583Y-36657
X79583Y-37657
X79583Y-38657
X79583Y-39657
X79583Y-40657
X79583Y-41657
X79583Y-42657
X79583Y-43657
X79583Y-44657
X79583Y-45657
X79583Y-46657
X79583Y-47657
X79583Y-48657
X79583Y-49657
T7
X61319Y-27724
X61319Y-31724
X62598Y-27724
X62598Y-31724
X66732Y-27953
X66799Y-29232
X70732Y-27953
X70799Y-29232
T8
X63449Y-45177
X65449Y-45177
T5
G00X62953Y-46969
M15
G01X63937Y-46969
M16
G05
G00X63051Y-49409
M15
G01X63839Y-49409
M16
G05
G00X65295Y-48622
M15
G01X65295Y-47835
M16
G05
M30
