%TF.GenerationSoftware,KiCad,Pcbnew,7.0.10*%
%TF.CreationDate,2024-01-05T15:39:22+01:00*%
%TF.ProjectId,GateControl,47617465-436f-46e7-9472-6f6c2e6b6963,rev?*%
%TF.SameCoordinates,Original*%
%TF.FileFunction,Paste,Top*%
%TF.FilePolarity,Positive*%
%FSLAX46Y46*%
G04 Gerber Fmt 4.6, Leading zero omitted, Abs format (unit mm)*
G04 Created by KiCad (PCBNEW 7.0.10) date 2024-01-05 15:39:22*
%MOMM*%
%LPD*%
G01*
G04 APERTURE LIST*
G04 Aperture macros list*
%AMRoundRect*
0 Rectangle with rounded corners*
0 $1 Rounding radius*
0 $2 $3 $4 $5 $6 $7 $8 $9 X,Y pos of 4 corners*
0 Add a 4 corners polygon primitive as box body*
4,1,4,$2,$3,$4,$5,$6,$7,$8,$9,$2,$3,0*
0 Add four circle primitives for the rounded corners*
1,1,$1+$1,$2,$3*
1,1,$1+$1,$4,$5*
1,1,$1+$1,$6,$7*
1,1,$1+$1,$8,$9*
0 Add four rect primitives between the rounded corners*
20,1,$1+$1,$2,$3,$4,$5,0*
20,1,$1+$1,$4,$5,$6,$7,0*
20,1,$1+$1,$6,$7,$8,$9,0*
20,1,$1+$1,$8,$9,$2,$3,0*%
G04 Aperture macros list end*
%ADD10RoundRect,0.237500X-0.287500X-0.237500X0.287500X-0.237500X0.287500X0.237500X-0.287500X0.237500X0*%
%ADD11RoundRect,0.250000X0.159099X-0.724784X0.724784X-0.159099X-0.159099X0.724784X-0.724784X0.159099X0*%
%ADD12RoundRect,0.250000X-0.350000X-0.450000X0.350000X-0.450000X0.350000X0.450000X-0.350000X0.450000X0*%
%ADD13R,0.650000X1.525000*%
%ADD14R,3.300000X2.410000*%
%ADD15RoundRect,0.237500X0.287500X0.237500X-0.287500X0.237500X-0.287500X-0.237500X0.287500X-0.237500X0*%
%ADD16RoundRect,0.250000X0.625000X-0.400000X0.625000X0.400000X-0.625000X0.400000X-0.625000X-0.400000X0*%
%ADD17R,2.000000X1.500000*%
%ADD18R,2.000000X3.800000*%
%ADD19R,1.350000X1.100000*%
%ADD20RoundRect,0.250000X-0.450000X0.350000X-0.450000X-0.350000X0.450000X-0.350000X0.450000X0.350000X0*%
%ADD21R,0.800000X0.300000*%
%ADD22R,0.750000X1.550000*%
%ADD23RoundRect,0.150000X0.825000X0.150000X-0.825000X0.150000X-0.825000X-0.150000X0.825000X-0.150000X0*%
G04 APERTURE END LIST*
D10*
%TO.C,D6*%
X173875000Y-109000000D03*
X175625000Y-109000000D03*
%TD*%
D11*
%TO.C,R_SENSE1*%
X163153984Y-73346016D03*
X165346016Y-71153984D03*
%TD*%
D12*
%TO.C,R10k_4*%
X168000000Y-91000000D03*
X170000000Y-91000000D03*
%TD*%
D10*
%TO.C,D1*%
X203875000Y-68250000D03*
X205625000Y-68250000D03*
%TD*%
D13*
%TO.C,U4*%
X161595000Y-87737000D03*
X162865000Y-87737000D03*
X164135000Y-87737000D03*
X165405000Y-87737000D03*
X165405000Y-82313000D03*
X164135000Y-82313000D03*
X162865000Y-82313000D03*
X161595000Y-82313000D03*
D14*
X163500000Y-85025000D03*
%TD*%
D15*
%TO.C,D7*%
X173625000Y-90750000D03*
X171875000Y-90750000D03*
%TD*%
D16*
%TO.C,R_SHNT1*%
X167750000Y-87050000D03*
X167750000Y-83950000D03*
%TD*%
D17*
%TO.C,U5*%
X161350000Y-99700000D03*
X161350000Y-102000000D03*
D18*
X167650000Y-102000000D03*
D17*
X161350000Y-104300000D03*
%TD*%
D19*
%TO.C,S1*%
X186075000Y-64500000D03*
X191925000Y-64500000D03*
X186075000Y-67500000D03*
X191925000Y-67500000D03*
%TD*%
D12*
%TO.C,R2k_1*%
X203750000Y-71250000D03*
X205750000Y-71250000D03*
%TD*%
D20*
%TO.C,R2k_4*%
X175500000Y-105250000D03*
X175500000Y-107250000D03*
%TD*%
D21*
%TO.C,U3*%
X197500000Y-65100000D03*
X197500000Y-65750000D03*
X197500000Y-66400000D03*
X199500000Y-66400000D03*
X199500000Y-65750000D03*
X199500000Y-65100000D03*
D22*
X198500000Y-65750000D03*
%TD*%
D23*
%TO.C,U2*%
X175225000Y-86155000D03*
X175225000Y-84885000D03*
X175225000Y-83615000D03*
X175225000Y-82345000D03*
X170275000Y-82345000D03*
X170275000Y-83615000D03*
X170275000Y-84885000D03*
X170275000Y-86155000D03*
%TD*%
M02*
